G04 Layer_Physical_Order=1*
G04 Layer_Color=255*
%FSLAX44Y44*%
%MOMM*%
G71*
G01*
G75*
%ADD10R,0.6000X1.0000*%
%ADD11O,1.4000X0.4500*%
%ADD12O,0.6000X1.4500*%
%ADD13R,1.4500X1.3000*%
%ADD14R,1.3000X1.4500*%
%ADD15R,1.4000X1.1500*%
%ADD16R,1.1500X1.4000*%
%ADD17R,2.0000X1.4000*%
%ADD18C,0.2540*%
%ADD19C,0.6350*%
%ADD20C,0.5080*%
%ADD21C,0.3048*%
%ADD22C,1.5240*%
%ADD23C,4.0000*%
%ADD24C,2.1844*%
%ADD25C,2.0000*%
%ADD26C,0.7620*%
G36*
X262489Y193827D02*
X217726Y149063D01*
X120232D01*
X80048Y189247D01*
X80333Y191410D01*
X80027Y193730D01*
X80037Y194062D01*
X80663Y195000D01*
X86957D01*
X87583Y194062D01*
X87592Y193730D01*
X87421Y192426D01*
X96510D01*
X105599D01*
X105427Y193730D01*
X105437Y194062D01*
X106063Y195000D01*
X112357D01*
X112983Y194062D01*
X112992Y193730D01*
X112821Y192426D01*
X121910D01*
X130999D01*
X130827Y193730D01*
X130837Y194062D01*
X131463Y195000D01*
X137757D01*
X138383Y194062D01*
X138392Y193730D01*
X138087Y191410D01*
X138401Y189023D01*
X139323Y186799D01*
X140788Y184888D01*
X142698Y183423D01*
X144923Y182501D01*
X147310Y182187D01*
X149697Y182501D01*
X151921Y183423D01*
X153832Y184888D01*
X155297Y186799D01*
X156219Y189023D01*
X156533Y191410D01*
X156227Y193730D01*
X156237Y194062D01*
X156863Y195000D01*
X163157D01*
X163783Y194062D01*
X163792Y193730D01*
X163487Y191410D01*
X163801Y189023D01*
X164723Y186799D01*
X166188Y184888D01*
X168099Y183423D01*
X170323Y182501D01*
X172710Y182187D01*
X175097Y182501D01*
X177321Y183423D01*
X179232Y184888D01*
X180697Y186799D01*
X181619Y189023D01*
X181933Y191410D01*
X181627Y193730D01*
X181637Y194062D01*
X182263Y195000D01*
X208580D01*
X208832Y193730D01*
X208481Y193584D01*
X208323Y193427D01*
X208108Y193369D01*
X205826Y191618D01*
X205715Y191425D01*
X205522Y191314D01*
X203771Y189032D01*
X203713Y188817D01*
X203556Y188659D01*
X202455Y186003D01*
Y185780D01*
X202344Y185586D01*
X201968Y182735D01*
X202026Y182520D01*
X201968Y182305D01*
X202344Y179454D01*
X202455Y179260D01*
Y179037D01*
X203556Y176381D01*
X203713Y176223D01*
X203771Y176008D01*
X205522Y173726D01*
X205715Y173615D01*
X205826Y173422D01*
X208108Y171671D01*
X208323Y171613D01*
X208481Y171456D01*
X211138Y170355D01*
X211360D01*
X211553Y170244D01*
X214405Y169868D01*
X214515Y169898D01*
X214620Y169854D01*
X214725Y169898D01*
X214835Y169868D01*
X217687Y170244D01*
X217880Y170355D01*
X218102D01*
X220759Y171456D01*
X220917Y171613D01*
X221132Y171671D01*
X223414Y173422D01*
X223525Y173615D01*
X223718Y173726D01*
X225469Y176008D01*
X225527Y176223D01*
X225684Y176381D01*
X226785Y179037D01*
Y179260D01*
X226896Y179454D01*
X227272Y182305D01*
X227214Y182520D01*
X227272Y182735D01*
X226896Y185586D01*
X226785Y185780D01*
Y186003D01*
X225684Y188659D01*
X225527Y188817D01*
X225469Y189032D01*
X223718Y191314D01*
X223525Y191425D01*
X223414Y191618D01*
X221132Y193369D01*
X220917Y193427D01*
X220759Y193584D01*
X220408Y193730D01*
X220660Y195000D01*
X262003D01*
X262489Y193827D01*
D02*
G37*
G36*
X990000Y10000D02*
X85992D01*
X85739Y11270D01*
X86139Y11436D01*
X86297Y11593D01*
X86512Y11651D01*
X88794Y13402D01*
X88905Y13595D01*
X89098Y13706D01*
X90849Y15988D01*
X90907Y16203D01*
X91064Y16361D01*
X92165Y19017D01*
Y19240D01*
X92276Y19433D01*
X92652Y22285D01*
X92594Y22500D01*
X92652Y22715D01*
X92276Y25566D01*
X92165Y25760D01*
Y25982D01*
X91064Y28639D01*
X90907Y28797D01*
X90849Y29012D01*
X89098Y31294D01*
X88905Y31405D01*
X88794Y31598D01*
X86512Y33349D01*
X86297Y33407D01*
X86139Y33564D01*
X83483Y34665D01*
X83259D01*
X83067Y34776D01*
X80215Y35152D01*
X80105Y35122D01*
X80000Y35166D01*
X79895Y35122D01*
X79785Y35152D01*
X76933Y34776D01*
X76740Y34665D01*
X76518D01*
X73861Y33564D01*
X73703Y33407D01*
X73488Y33349D01*
X71206Y31598D01*
X71095Y31405D01*
X70902Y31294D01*
X69151Y29012D01*
X69093Y28797D01*
X68936Y28639D01*
X67835Y25982D01*
Y25760D01*
X67724Y25566D01*
X67348Y22715D01*
X67406Y22500D01*
X67348Y22285D01*
X67724Y19433D01*
X67835Y19240D01*
Y19017D01*
X68936Y16361D01*
X69093Y16203D01*
X69151Y15988D01*
X70902Y13706D01*
X71095Y13595D01*
X71206Y13402D01*
X73488Y11651D01*
X73703Y11593D01*
X73861Y11436D01*
X74261Y11270D01*
X74008Y10000D01*
X10000D01*
Y195000D01*
X61557D01*
X62183Y194062D01*
X62193Y193730D01*
X61887Y191410D01*
X62201Y189023D01*
X63123Y186799D01*
X64588Y184888D01*
X66498Y183423D01*
X68723Y182501D01*
X71110Y182187D01*
X73273Y182472D01*
X114860Y140884D01*
X116414Y139846D01*
X118248Y139481D01*
X219710D01*
X221544Y139846D01*
X223098Y140884D01*
X270173Y187959D01*
X687250D01*
X689083Y188324D01*
X690638Y189362D01*
X744388Y243112D01*
X745426Y244667D01*
X745791Y246500D01*
Y518765D01*
X787234Y560209D01*
X837151D01*
X838478Y558478D01*
X840389Y557013D01*
X842613Y556091D01*
X845000Y555777D01*
X847387Y556091D01*
X849612Y557013D01*
X851522Y558478D01*
X852987Y560388D01*
X853909Y562613D01*
X854223Y565000D01*
X853909Y567387D01*
X852987Y569611D01*
X851522Y571522D01*
X849612Y572987D01*
X847387Y573909D01*
X845000Y574223D01*
X842613Y573909D01*
X840389Y572987D01*
X838478Y571522D01*
X837151Y569791D01*
X785250D01*
X783417Y569426D01*
X781862Y568388D01*
X737612Y524138D01*
X736574Y522584D01*
X736209Y520750D01*
Y248484D01*
X685266Y197541D01*
X680000D01*
Y770000D01*
X990000D01*
Y10000D01*
D02*
G37*
%LPC*%
G36*
X130999Y190394D02*
X122926D01*
Y182321D01*
X124297Y182501D01*
X126521Y183423D01*
X128432Y184888D01*
X129897Y186799D01*
X130819Y189023D01*
X130999Y190394D01*
D02*
G37*
G36*
X105599D02*
X97526D01*
Y182321D01*
X98897Y182501D01*
X101121Y183423D01*
X103032Y184888D01*
X104497Y186799D01*
X105419Y189023D01*
X105599Y190394D01*
D02*
G37*
G36*
X95494D02*
X87421D01*
X87601Y189023D01*
X88523Y186799D01*
X89988Y184888D01*
X91898Y183423D01*
X94123Y182501D01*
X95494Y182321D01*
Y190394D01*
D02*
G37*
G36*
X120894D02*
X112821D01*
X113001Y189023D01*
X113923Y186799D01*
X115388Y184888D01*
X117298Y183423D01*
X119523Y182501D01*
X120894Y182321D01*
Y190394D01*
D02*
G37*
G36*
X172710Y175233D02*
X170323Y174919D01*
X168099Y173997D01*
X166188Y172532D01*
X164723Y170621D01*
X163801Y168397D01*
X163487Y166010D01*
X163801Y163623D01*
X164723Y161399D01*
X166188Y159488D01*
X168099Y158023D01*
X170323Y157101D01*
X172710Y156787D01*
X175097Y157101D01*
X177321Y158023D01*
X179232Y159488D01*
X180697Y161399D01*
X181619Y163623D01*
X181933Y166010D01*
X181619Y168397D01*
X180697Y170621D01*
X179232Y172532D01*
X177321Y173997D01*
X175097Y174919D01*
X172710Y175233D01*
D02*
G37*
G36*
X256184Y123389D02*
X254813Y123209D01*
X252589Y122287D01*
X250678Y120822D01*
X249213Y118911D01*
X248291Y116687D01*
X248111Y115316D01*
X256184D01*
Y123389D01*
D02*
G37*
G36*
X459384D02*
X458013Y123209D01*
X455788Y122287D01*
X453878Y120822D01*
X452413Y118911D01*
X451491Y116687D01*
X451311Y115316D01*
X459384D01*
Y123389D01*
D02*
G37*
G36*
X767734Y125236D02*
X766669Y125024D01*
X764905Y123845D01*
X763726Y122081D01*
X763514Y121016D01*
X767734D01*
Y125236D01*
D02*
G37*
G36*
X258216Y123389D02*
Y115316D01*
X266289D01*
X266109Y116687D01*
X265187Y118911D01*
X263722Y120822D01*
X261811Y122287D01*
X259587Y123209D01*
X258216Y123389D01*
D02*
G37*
G36*
X461416D02*
Y115316D01*
X469489D01*
X469309Y116687D01*
X468387Y118911D01*
X466922Y120822D01*
X465011Y122287D01*
X462787Y123209D01*
X461416Y123389D01*
D02*
G37*
G36*
X459384Y113284D02*
X451311D01*
X451491Y111913D01*
X452413Y109689D01*
X453878Y107778D01*
X455788Y106313D01*
X458013Y105391D01*
X459384Y105211D01*
Y113284D01*
D02*
G37*
G36*
X256184D02*
X248111D01*
X248291Y111913D01*
X249213Y109689D01*
X250678Y107778D01*
X252589Y106313D01*
X254813Y105391D01*
X256184Y105211D01*
Y113284D01*
D02*
G37*
G36*
X562000Y123523D02*
X559613Y123209D01*
X557388Y122287D01*
X555478Y120822D01*
X554013Y118911D01*
X553091Y116687D01*
X552777Y114300D01*
X553091Y111913D01*
X554013Y109689D01*
X555478Y107778D01*
X557388Y106313D01*
X559613Y105391D01*
X562000Y105077D01*
X564387Y105391D01*
X566611Y106313D01*
X568522Y107778D01*
X569987Y109689D01*
X570909Y111913D01*
X571223Y114300D01*
X570909Y116687D01*
X569987Y118911D01*
X568522Y120822D01*
X566611Y122287D01*
X564387Y123209D01*
X562000Y123523D01*
D02*
G37*
G36*
X767734Y118984D02*
X763514D01*
X763726Y117919D01*
X764905Y116154D01*
X766669Y114975D01*
X767734Y114763D01*
Y118984D01*
D02*
G37*
G36*
X469489Y113284D02*
X461416D01*
Y105211D01*
X462787Y105391D01*
X465011Y106313D01*
X466922Y107778D01*
X468387Y109689D01*
X469309Y111913D01*
X469489Y113284D01*
D02*
G37*
G36*
X266289D02*
X258216D01*
Y105211D01*
X259587Y105391D01*
X261811Y106313D01*
X263722Y107778D01*
X265187Y109689D01*
X266109Y111913D01*
X266289Y113284D01*
D02*
G37*
G36*
X715016Y152236D02*
Y148016D01*
X719237D01*
X719025Y149081D01*
X717846Y150845D01*
X716081Y152024D01*
X715016Y152236D01*
D02*
G37*
G36*
X784666Y151411D02*
Y143766D01*
X788263D01*
Y147000D01*
X787912Y148765D01*
X786912Y150262D01*
X785415Y151262D01*
X784666Y151411D01*
D02*
G37*
G36*
X782634Y151411D02*
X781885Y151262D01*
X780388Y150262D01*
X779389Y148765D01*
X779037Y147000D01*
Y143766D01*
X782634D01*
Y151411D01*
D02*
G37*
G36*
X899236Y157734D02*
X895016D01*
Y153514D01*
X896081Y153726D01*
X897846Y154904D01*
X899025Y156669D01*
X899236Y157734D01*
D02*
G37*
G36*
X837000Y183900D02*
X823000D01*
X821834Y183417D01*
X821350Y182250D01*
Y170750D01*
X821834Y169584D01*
X823000Y169101D01*
X827151D01*
Y165899D01*
X823000D01*
X821834Y165416D01*
X821350Y164250D01*
Y152750D01*
X821834Y151583D01*
X823000Y151100D01*
X837000D01*
X838166Y151583D01*
X838650Y152750D01*
Y164250D01*
X838166Y165416D01*
X837000Y165899D01*
X832849D01*
Y169101D01*
X837000D01*
X838166Y169584D01*
X838650Y170750D01*
Y182250D01*
X838166Y183417D01*
X837000Y183900D01*
D02*
G37*
G36*
X757000Y200900D02*
X743000D01*
X741834Y200417D01*
X741350Y199250D01*
Y189306D01*
X729802Y177758D01*
X729129Y176750D01*
X728892Y175561D01*
Y93839D01*
X728154Y93346D01*
X726975Y91581D01*
X726562Y89500D01*
X726975Y87419D01*
X728154Y85654D01*
X729919Y84475D01*
X732000Y84061D01*
X733544Y84369D01*
X734169Y83198D01*
X719570Y68599D01*
X687760D01*
X687632Y68751D01*
X687198Y69869D01*
X687805Y70778D01*
X688098Y72250D01*
X687805Y73723D01*
X687188Y74647D01*
X687054Y75500D01*
X687188Y76354D01*
X687805Y77277D01*
X688098Y78750D01*
X687805Y80223D01*
X686971Y81471D01*
Y82529D01*
X687805Y83778D01*
X688098Y85250D01*
X687805Y86722D01*
X687188Y87647D01*
X687054Y88500D01*
X687188Y89354D01*
X687805Y90277D01*
X688098Y91750D01*
X687805Y93223D01*
X686971Y94471D01*
Y95529D01*
X687805Y96777D01*
X688098Y98250D01*
X687805Y99722D01*
X687188Y100646D01*
X687054Y101500D01*
X687188Y102353D01*
X687805Y103277D01*
X688098Y104750D01*
X687805Y106222D01*
X687198Y107131D01*
X687632Y108249D01*
X687760Y108401D01*
X692250D01*
X692250Y108401D01*
X693340Y108618D01*
X694264Y109236D01*
X703264Y118236D01*
X703264Y118236D01*
X703882Y119160D01*
X704099Y120250D01*
X704099Y120250D01*
Y127000D01*
X704099Y127000D01*
X703882Y128090D01*
X703264Y129014D01*
X703264Y129014D01*
X697514Y134764D01*
X696590Y135382D01*
X695500Y135599D01*
X695500Y135599D01*
X692430D01*
X689849Y138180D01*
Y140456D01*
X691101Y140500D01*
X691584Y139333D01*
X692750Y138850D01*
X698984D01*
Y147000D01*
X701016D01*
Y138850D01*
X707250D01*
X708417Y139333D01*
X708900Y140500D01*
Y142746D01*
X710155Y143154D01*
X711919Y141975D01*
X712984Y141763D01*
Y147000D01*
Y152236D01*
X711919Y152024D01*
X710155Y150845D01*
X708900Y151254D01*
Y153500D01*
X708667Y154062D01*
X708482Y155000D01*
X708667Y155937D01*
X708900Y156500D01*
Y169500D01*
X708417Y170666D01*
X707250Y171149D01*
X692750D01*
X691584Y170666D01*
X691245Y169849D01*
X683650D01*
Y174000D01*
X683166Y175166D01*
X682000Y175650D01*
X662000D01*
X660834Y175166D01*
X660350Y174000D01*
Y160000D01*
X660834Y158834D01*
X662000Y158350D01*
X676621D01*
X682088Y152883D01*
X681526Y151650D01*
X662000D01*
X660834Y151166D01*
X660350Y150000D01*
Y136000D01*
X660834Y134834D01*
X662000Y134350D01*
X682000D01*
X683166Y134834D01*
X683317Y135197D01*
X684750Y135338D01*
X684986Y134986D01*
X689236Y130736D01*
X689236Y130736D01*
X690160Y130118D01*
X691250Y129901D01*
X694320D01*
X698401Y125820D01*
Y121430D01*
X691070Y114099D01*
X687760D01*
X687632Y114250D01*
X687198Y115369D01*
X687805Y116277D01*
X688098Y117750D01*
X687805Y119222D01*
X686971Y120471D01*
Y121529D01*
X687805Y122778D01*
X687896Y123234D01*
X679500D01*
X671104D01*
X671195Y122778D01*
X671802Y121869D01*
X671368Y120751D01*
X671240Y120599D01*
X654430D01*
X639468Y135561D01*
X639650Y136000D01*
Y150000D01*
X639166Y151166D01*
X638000Y151650D01*
X618000D01*
X616834Y151166D01*
X616350Y150000D01*
Y149849D01*
X608899D01*
Y153500D01*
X608666Y154063D01*
X608482Y155000D01*
X608666Y155938D01*
X608899Y156500D01*
Y161984D01*
X600000D01*
Y163000D01*
X598984D01*
Y171150D01*
X592750D01*
X591583Y170667D01*
X591100Y169500D01*
Y167254D01*
X589846Y166846D01*
X588081Y168025D01*
X587016Y168237D01*
Y163000D01*
Y157764D01*
X588081Y157976D01*
X589846Y159155D01*
X591100Y158746D01*
Y156500D01*
X591333Y155938D01*
X591518Y155000D01*
X591333Y154063D01*
X591100Y153500D01*
Y140500D01*
X591583Y139334D01*
X592750Y138851D01*
X607250D01*
X608416Y139334D01*
X608899Y140500D01*
Y144151D01*
X616350D01*
Y136000D01*
X616834Y134834D01*
X616496Y133599D01*
X591695D01*
X562244Y163050D01*
X561320Y163668D01*
X560229Y163885D01*
X560229Y163885D01*
X353000D01*
X352334Y164882D01*
X350569Y166061D01*
X348488Y166474D01*
X346407Y166061D01*
X344642Y164882D01*
X343464Y163117D01*
X343050Y161036D01*
X343464Y158955D01*
X344642Y157190D01*
X346407Y156011D01*
X348488Y155597D01*
X349800Y155858D01*
X350563Y154715D01*
X350067Y153973D01*
X349654Y151892D01*
X350067Y149811D01*
X350677Y148899D01*
X349998Y147629D01*
X313080D01*
X311990Y147412D01*
X311066Y146794D01*
X311066Y146794D01*
X286750Y122479D01*
X284987Y123209D01*
X282600Y123523D01*
X280213Y123209D01*
X277988Y122287D01*
X276078Y120822D01*
X274613Y118911D01*
X273691Y116687D01*
X273377Y114300D01*
X273691Y111913D01*
X274613Y109689D01*
X276078Y107778D01*
X277988Y106313D01*
X280213Y105391D01*
X282600Y105077D01*
X284987Y105391D01*
X287211Y106313D01*
X289122Y107778D01*
X290587Y109689D01*
X291509Y111913D01*
X291823Y114300D01*
X291509Y116687D01*
X290779Y118450D01*
X314260Y141931D01*
X562793D01*
X563366Y141217D01*
X562834Y140009D01*
X330860D01*
X329770Y139792D01*
X328846Y139174D01*
X328846Y139174D01*
X312150Y122479D01*
X310387Y123209D01*
X308000Y123523D01*
X305613Y123209D01*
X303389Y122287D01*
X301478Y120822D01*
X300013Y118911D01*
X299091Y116687D01*
X298777Y114300D01*
X299091Y111913D01*
X300013Y109689D01*
X301478Y107778D01*
X303389Y106313D01*
X305613Y105391D01*
X308000Y105077D01*
X310387Y105391D01*
X312611Y106313D01*
X314522Y107778D01*
X315987Y109689D01*
X316909Y111913D01*
X317223Y114300D01*
X316909Y116687D01*
X316178Y118450D01*
X332040Y134311D01*
X352651D01*
X353137Y133138D01*
X344696Y124696D01*
X344078Y123772D01*
X343861Y122682D01*
X343861Y122682D01*
Y114623D01*
X342591Y114540D01*
X342496Y115266D01*
X342309Y116687D01*
X341387Y118911D01*
X339922Y120822D01*
X338011Y122287D01*
X335787Y123209D01*
X333400Y123523D01*
X331013Y123209D01*
X328788Y122287D01*
X326878Y120822D01*
X325413Y118911D01*
X324491Y116687D01*
X324177Y114300D01*
X324491Y111913D01*
X325413Y109689D01*
X326878Y107778D01*
X328788Y106313D01*
X331013Y105391D01*
X333400Y105077D01*
X335787Y105391D01*
X338011Y106313D01*
X339922Y107778D01*
X341387Y109689D01*
X342309Y111913D01*
X342496Y113334D01*
X342591Y114060D01*
X343861Y113976D01*
Y109384D01*
X337148Y102671D01*
X293522D01*
X293522Y102671D01*
X292432Y102454D01*
X291508Y101836D01*
X291508Y101836D01*
X286750Y97079D01*
X284987Y97809D01*
X282600Y98123D01*
X280213Y97809D01*
X277988Y96887D01*
X276078Y95422D01*
X274613Y93511D01*
X273691Y91287D01*
X273377Y88900D01*
X273691Y86513D01*
X274613Y84289D01*
X276078Y82378D01*
X277988Y80913D01*
X280213Y79991D01*
X282600Y79677D01*
X284987Y79991D01*
X287211Y80913D01*
X289122Y82378D01*
X290587Y84289D01*
X291509Y86513D01*
X291823Y88900D01*
X291509Y91287D01*
X290779Y93050D01*
X294702Y96973D01*
X301414D01*
X301845Y95703D01*
X301478Y95422D01*
X300013Y93511D01*
X299091Y91287D01*
X298777Y88900D01*
X299091Y86513D01*
X300013Y84289D01*
X301478Y82378D01*
X303389Y80913D01*
X305613Y79991D01*
X308000Y79677D01*
X310387Y79991D01*
X312611Y80913D01*
X314522Y82378D01*
X315987Y84289D01*
X316909Y86513D01*
X317223Y88900D01*
X316909Y91287D01*
X315987Y93511D01*
X314522Y95422D01*
X314154Y95703D01*
X314586Y96973D01*
X326814D01*
X327245Y95703D01*
X326878Y95422D01*
X325413Y93511D01*
X324491Y91287D01*
X324311Y89916D01*
X333400D01*
X342489D01*
X342309Y91287D01*
X341387Y93511D01*
X339922Y95422D01*
X339328Y95877D01*
X339372Y96524D01*
X339570Y97292D01*
X340342Y97808D01*
X348724Y106190D01*
X348724Y106190D01*
X349342Y107114D01*
X349559Y108204D01*
Y109397D01*
X350761Y109677D01*
X350829Y109668D01*
X352278Y107778D01*
X354188Y106313D01*
X356413Y105391D01*
X358800Y105077D01*
X361187Y105391D01*
X363411Y106313D01*
X365322Y107778D01*
X366787Y109689D01*
X367709Y111913D01*
X368023Y114300D01*
X367709Y116687D01*
X366787Y118911D01*
X365322Y120822D01*
X363411Y122287D01*
X361187Y123209D01*
X358800Y123523D01*
X356413Y123209D01*
X354188Y122287D01*
X352278Y120822D01*
X350829Y118932D01*
X350761Y118923D01*
X349559Y119203D01*
Y121502D01*
X358304Y130247D01*
X562287D01*
X592781Y99753D01*
Y85100D01*
X592781Y85100D01*
X592998Y84010D01*
X593616Y83086D01*
X599966Y76736D01*
X599966Y76736D01*
X600890Y76118D01*
X601980Y75901D01*
X612240D01*
X612368Y75749D01*
X612802Y74631D01*
X612195Y73723D01*
X611902Y72250D01*
X612195Y70778D01*
X612629Y70128D01*
X611950Y68858D01*
X610000D01*
X608811Y68621D01*
X607803Y67948D01*
X607129Y66939D01*
X606892Y65750D01*
Y53899D01*
X601500D01*
X600334Y53416D01*
X599666Y53416D01*
X598500Y53899D01*
X593016D01*
Y45000D01*
Y36100D01*
X598500D01*
X599666Y36583D01*
X600334Y36583D01*
X601500Y36100D01*
X614500D01*
X615666Y36583D01*
X616149Y37750D01*
Y52250D01*
X615900Y52851D01*
X616949Y53637D01*
X616988Y53611D01*
X618419Y52656D01*
X618789Y52582D01*
X619100Y52000D01*
Y38000D01*
X619584Y36834D01*
X620750Y36350D01*
X632250D01*
X633416Y36834D01*
X633899Y38000D01*
Y52000D01*
X633416Y53166D01*
X632250Y53650D01*
X628850D01*
X628697Y53878D01*
X625765Y56810D01*
X625938Y57680D01*
X625524Y59761D01*
X624943Y60632D01*
X625069Y61156D01*
X625578Y61967D01*
X626722Y62195D01*
X627971Y63029D01*
X628805Y64277D01*
X629098Y65750D01*
X628805Y67222D01*
X628198Y68131D01*
X628632Y69249D01*
X628760Y69401D01*
X633570D01*
X640651Y62320D01*
Y53650D01*
X637750D01*
X636583Y53166D01*
X636100Y52000D01*
Y38000D01*
X636583Y36834D01*
X637750Y36350D01*
X649250D01*
X650416Y36834D01*
X650899Y38000D01*
Y52000D01*
X650416Y53166D01*
X649250Y53650D01*
X646348D01*
Y63500D01*
X646132Y64591D01*
X645514Y65515D01*
X645514Y65515D01*
X636764Y74264D01*
X635840Y74882D01*
X634750Y75099D01*
X634750Y75099D01*
X628760D01*
X628632Y75251D01*
X628198Y76369D01*
X628805Y77277D01*
X629098Y78750D01*
X628805Y80223D01*
X627971Y81471D01*
Y82529D01*
X628805Y83778D01*
X629098Y85250D01*
X628805Y86722D01*
X628198Y87631D01*
X628632Y88749D01*
X628760Y88901D01*
X632250D01*
X632250Y88901D01*
X633340Y89118D01*
X634264Y89736D01*
X637764Y93236D01*
X637764Y93236D01*
X638382Y94160D01*
X638599Y95250D01*
Y121750D01*
X638599Y121750D01*
X638382Y122840D01*
X637764Y123764D01*
X637764Y123764D01*
X628764Y132764D01*
X628291Y133080D01*
X628677Y134350D01*
X632621D01*
X651236Y115736D01*
X651236Y115736D01*
X652160Y115118D01*
X653250Y114901D01*
X653250Y114901D01*
X671240D01*
X671368Y114749D01*
X671802Y113631D01*
X671195Y112723D01*
X670902Y111250D01*
X671195Y109777D01*
X672029Y108529D01*
Y107471D01*
X671195Y106222D01*
X670902Y104750D01*
X671195Y103277D01*
X671812Y102353D01*
X671946Y101500D01*
X671812Y100646D01*
X671195Y99722D01*
X670902Y98250D01*
X671195Y96777D01*
X672029Y95529D01*
Y94471D01*
X671195Y93223D01*
X670902Y91750D01*
X671195Y90277D01*
X671812Y89354D01*
X671946Y88500D01*
X671812Y87647D01*
X671195Y86722D01*
X670902Y85250D01*
X671195Y83778D01*
X672029Y82529D01*
Y81471D01*
X671195Y80223D01*
X670902Y78750D01*
X671195Y77277D01*
X671802Y76369D01*
X671368Y75251D01*
X671240Y75099D01*
X667750D01*
X667750Y75099D01*
X666660Y74882D01*
X665736Y74264D01*
X665736Y74264D01*
X658736Y67264D01*
X658118Y66340D01*
X657901Y65250D01*
X657901Y65250D01*
Y56750D01*
X657901Y56750D01*
X658118Y55660D01*
X658736Y54736D01*
X665736Y47736D01*
X665736Y47736D01*
X666660Y47118D01*
X667750Y46901D01*
X667750Y46901D01*
X762500D01*
X762500Y46901D01*
X763590Y47118D01*
X764514Y47736D01*
X811064Y94286D01*
X811064Y94286D01*
X811682Y95210D01*
X811899Y96300D01*
X811899Y96300D01*
Y134963D01*
X812312Y135238D01*
X813311Y136735D01*
X813663Y138500D01*
Y139901D01*
X821350D01*
Y135750D01*
X821834Y134584D01*
X823000Y134100D01*
X837000D01*
X838166Y134584D01*
X838650Y135750D01*
Y147250D01*
X838166Y148416D01*
X837000Y148899D01*
X823000D01*
X821834Y148416D01*
X821350Y147250D01*
Y145599D01*
X813663D01*
Y147000D01*
X813311Y148765D01*
X812312Y150262D01*
X810815Y151262D01*
X809050Y151613D01*
X807285Y151262D01*
X805788Y150262D01*
X804789Y148765D01*
X804437Y147000D01*
Y138500D01*
X804789Y136735D01*
X805788Y135238D01*
X806201Y134963D01*
Y129541D01*
X804931Y128721D01*
X804500Y128899D01*
X799458D01*
Y135135D01*
X799612Y135238D01*
X800611Y136735D01*
X800963Y138500D01*
Y147000D01*
X800611Y148765D01*
X799612Y150262D01*
X798115Y151262D01*
X796350Y151613D01*
X794585Y151262D01*
X793088Y150262D01*
X792088Y148765D01*
X791737Y147000D01*
Y138500D01*
X792088Y136735D01*
X793088Y135238D01*
X793242Y135135D01*
Y128899D01*
X791500D01*
X790333Y128416D01*
X789666Y128416D01*
X788500Y128899D01*
X786499D01*
Y134963D01*
X786912Y135238D01*
X787912Y136735D01*
X788263Y138500D01*
Y141734D01*
X783650D01*
X779037D01*
Y138500D01*
X779389Y136735D01*
X780388Y135238D01*
X780801Y134963D01*
Y128899D01*
X775500D01*
X774333Y128416D01*
X773850Y127250D01*
Y124254D01*
X772596Y123845D01*
X770832Y125024D01*
X769766Y125236D01*
Y120000D01*
Y114763D01*
X770832Y114975D01*
X772596Y116154D01*
X773850Y115746D01*
Y112750D01*
X774333Y111583D01*
X775500Y111100D01*
X780984D01*
Y120000D01*
X783016D01*
Y111100D01*
X788500D01*
X789666Y111583D01*
X790333Y111583D01*
X791500Y111100D01*
X794892D01*
Y99037D01*
X760620Y64765D01*
X759750Y64939D01*
X757669Y64524D01*
X755904Y63346D01*
X754725Y61581D01*
X754312Y59500D01*
X754725Y57419D01*
X755904Y55654D01*
X757669Y54475D01*
X759750Y54061D01*
X760385Y54188D01*
X761120Y53039D01*
X760800Y52599D01*
X668930D01*
X663599Y57930D01*
Y64070D01*
X668930Y69401D01*
X671240D01*
X671368Y69249D01*
X671802Y68131D01*
X671195Y67222D01*
X670902Y65750D01*
X671195Y64277D01*
X672029Y63029D01*
X673277Y62195D01*
X674750Y61902D01*
X684250D01*
X685723Y62195D01*
X686780Y62901D01*
X720750D01*
X720750Y62901D01*
X721840Y63118D01*
X722764Y63736D01*
X752014Y92986D01*
X752632Y93910D01*
X752849Y95000D01*
X752849Y95000D01*
Y134100D01*
X757000D01*
X758166Y134584D01*
X758650Y135750D01*
Y138651D01*
X766337D01*
Y138500D01*
X766689Y136735D01*
X767688Y135238D01*
X769185Y134239D01*
X770950Y133887D01*
X772715Y134239D01*
X774212Y135238D01*
X775211Y136735D01*
X775563Y138500D01*
Y147000D01*
X775211Y148765D01*
X774212Y150262D01*
X772715Y151262D01*
X770950Y151613D01*
X769185Y151262D01*
X767688Y150262D01*
X766689Y148765D01*
X766337Y147000D01*
Y144349D01*
X758650D01*
Y147250D01*
X758166Y148416D01*
X757000Y148899D01*
X743000D01*
X741834Y148416D01*
X741350Y147250D01*
Y135750D01*
X741834Y134584D01*
X743000Y134100D01*
X747151D01*
Y96180D01*
X738302Y87331D01*
X737131Y87956D01*
X737439Y89500D01*
X737025Y91581D01*
X735846Y93346D01*
X735108Y93839D01*
Y174274D01*
X740177Y179343D01*
X741350Y178857D01*
Y170750D01*
X741834Y169584D01*
X743000Y169101D01*
X747151D01*
Y165899D01*
X743000D01*
X741834Y165416D01*
X741350Y164250D01*
Y152750D01*
X741834Y151583D01*
X743000Y151100D01*
X757000D01*
X758166Y151583D01*
X758650Y152750D01*
Y164250D01*
X758166Y165416D01*
X757000Y165899D01*
X752849D01*
Y169101D01*
X757000D01*
X758166Y169584D01*
X758650Y170750D01*
Y182250D01*
X758166Y183417D01*
X757000Y183900D01*
X746393D01*
X745907Y185073D01*
X746935Y186101D01*
X757000D01*
X758166Y186584D01*
X758650Y187750D01*
Y199250D01*
X758166Y200417D01*
X757000Y200900D01*
D02*
G37*
G36*
X886984Y133984D02*
X882764D01*
X882976Y132919D01*
X884155Y131154D01*
X885919Y129975D01*
X886984Y129763D01*
Y133984D01*
D02*
G37*
G36*
X684250Y128098D02*
X680516D01*
Y125266D01*
X687896D01*
X687805Y125723D01*
X686971Y126971D01*
X685723Y127805D01*
X684250Y128098D01*
D02*
G37*
G36*
X678484D02*
X674750D01*
X673277Y127805D01*
X672029Y126971D01*
X671195Y125723D01*
X671104Y125266D01*
X678484D01*
Y128098D01*
D02*
G37*
G36*
X719237Y145984D02*
X715016D01*
Y141763D01*
X716081Y141975D01*
X717846Y143154D01*
X719025Y144919D01*
X719237Y145984D01*
D02*
G37*
G36*
X900984Y143899D02*
X895500D01*
X894333Y143416D01*
X893850Y142250D01*
Y137849D01*
X892512D01*
X891846Y138845D01*
X890081Y140024D01*
X889016Y140236D01*
Y135000D01*
Y129763D01*
X890081Y129975D01*
X891846Y131154D01*
X892512Y132151D01*
X893850D01*
Y127750D01*
X894333Y126583D01*
X895500Y126100D01*
X900984D01*
Y135000D01*
Y143899D01*
D02*
G37*
G36*
X886984Y140236D02*
X885919Y140024D01*
X884155Y138845D01*
X882976Y137081D01*
X882764Y136016D01*
X886984D01*
Y140236D01*
D02*
G37*
G36*
X536600Y123523D02*
X534213Y123209D01*
X531988Y122287D01*
X530078Y120822D01*
X528613Y118911D01*
X527691Y116687D01*
X527377Y114300D01*
X527691Y111913D01*
X528613Y109689D01*
X530078Y107778D01*
X531988Y106313D01*
X534213Y105391D01*
X536600Y105077D01*
X538987Y105391D01*
X541211Y106313D01*
X543122Y107778D01*
X544587Y109689D01*
X545509Y111913D01*
X545823Y114300D01*
X545509Y116687D01*
X544587Y118911D01*
X543122Y120822D01*
X541211Y122287D01*
X538987Y123209D01*
X536600Y123523D01*
D02*
G37*
G36*
X562000Y98123D02*
X559613Y97809D01*
X557388Y96887D01*
X555478Y95422D01*
X554013Y93511D01*
X553091Y91287D01*
X552777Y88900D01*
X553091Y86513D01*
X554013Y84289D01*
X555478Y82378D01*
X557388Y80913D01*
X559613Y79991D01*
X562000Y79677D01*
X564387Y79991D01*
X566611Y80913D01*
X568522Y82378D01*
X569987Y84289D01*
X570909Y86513D01*
X571223Y88900D01*
X570909Y91287D01*
X569987Y93511D01*
X568522Y95422D01*
X566611Y96887D01*
X564387Y97809D01*
X562000Y98123D01*
D02*
G37*
G36*
X536600D02*
X534213Y97809D01*
X531988Y96887D01*
X530078Y95422D01*
X528613Y93511D01*
X527691Y91287D01*
X527377Y88900D01*
X527691Y86513D01*
X528613Y84289D01*
X530078Y82378D01*
X531988Y80913D01*
X534213Y79991D01*
X536600Y79677D01*
X538987Y79991D01*
X541211Y80913D01*
X543122Y82378D01*
X544587Y84289D01*
X545509Y86513D01*
X545823Y88900D01*
X545509Y91287D01*
X544587Y93511D01*
X543122Y95422D01*
X541211Y96887D01*
X538987Y97809D01*
X536600Y98123D01*
D02*
G37*
G36*
X435000D02*
X432613Y97809D01*
X430388Y96887D01*
X428478Y95422D01*
X427013Y93511D01*
X426091Y91287D01*
X425777Y88900D01*
X426091Y86513D01*
X427013Y84289D01*
X428478Y82378D01*
X430388Y80913D01*
X432613Y79991D01*
X435000Y79677D01*
X437387Y79991D01*
X439611Y80913D01*
X441522Y82378D01*
X442987Y84289D01*
X443909Y86513D01*
X444223Y88900D01*
X443909Y91287D01*
X442987Y93511D01*
X441522Y95422D01*
X439611Y96887D01*
X437387Y97809D01*
X435000Y98123D01*
D02*
G37*
G36*
X510184Y87884D02*
X502111D01*
X502291Y86513D01*
X503213Y84289D01*
X504678Y82378D01*
X506589Y80913D01*
X508813Y79991D01*
X510184Y79811D01*
Y87884D01*
D02*
G37*
G36*
X408584D02*
X400511D01*
X400691Y86513D01*
X401613Y84289D01*
X403078Y82378D01*
X404989Y80913D01*
X407213Y79991D01*
X408584Y79811D01*
Y87884D01*
D02*
G37*
G36*
X332384D02*
X324311D01*
X324491Y86513D01*
X325413Y84289D01*
X326878Y82378D01*
X328788Y80913D01*
X331013Y79991D01*
X332384Y79811D01*
Y87884D01*
D02*
G37*
G36*
X34200Y60736D02*
X34095Y60692D01*
X33985Y60722D01*
X31374Y60378D01*
X31181Y60267D01*
X30958D01*
X28526Y59259D01*
X28368Y59102D01*
X28153Y59044D01*
X26064Y57441D01*
X25952Y57248D01*
X25759Y57136D01*
X24156Y55047D01*
X24099Y54832D01*
X23941Y54675D01*
X22933Y52242D01*
Y52019D01*
X22822Y51826D01*
X22478Y49215D01*
X22536Y49000D01*
X22478Y48785D01*
X22822Y46174D01*
X22934Y45981D01*
Y45758D01*
X23941Y43326D01*
X24099Y43168D01*
X24156Y42953D01*
X25759Y40864D01*
X25952Y40752D01*
X26064Y40559D01*
X28153Y38956D01*
X28368Y38899D01*
X28526Y38741D01*
X30958Y37734D01*
X31181D01*
X31374Y37622D01*
X33985Y37278D01*
X34095Y37308D01*
X34200Y37264D01*
X34305Y37308D01*
X34416Y37278D01*
X37026Y37622D01*
X37219Y37734D01*
X37442D01*
X39875Y38741D01*
X40032Y38899D01*
X40248Y38956D01*
X42336Y40559D01*
X42448Y40752D01*
X42641Y40864D01*
X44244Y42953D01*
X44302Y43168D01*
X44459Y43326D01*
X45467Y45758D01*
Y45981D01*
X45578Y46174D01*
X45922Y48785D01*
X45864Y49000D01*
X45922Y49215D01*
X45578Y51826D01*
X45467Y52019D01*
Y52242D01*
X44459Y54675D01*
X44302Y54832D01*
X44244Y55047D01*
X42641Y57136D01*
X42448Y57248D01*
X42336Y57441D01*
X40248Y59044D01*
X40032Y59102D01*
X39875Y59259D01*
X37442Y60267D01*
X37219D01*
X37026Y60378D01*
X34416Y60722D01*
X34305Y60692D01*
X34200Y60736D01*
D02*
G37*
G36*
X590984Y53899D02*
X585500D01*
X584333Y53416D01*
X583850Y52250D01*
Y46016D01*
X590984D01*
Y53899D01*
D02*
G37*
G36*
Y43984D02*
X583850D01*
Y37750D01*
X584333Y36583D01*
X585500Y36100D01*
X590984D01*
Y43984D01*
D02*
G37*
G36*
X358800Y98123D02*
X356413Y97809D01*
X354188Y96887D01*
X352278Y95422D01*
X350813Y93511D01*
X349891Y91287D01*
X349577Y88900D01*
X349891Y86513D01*
X350813Y84289D01*
X352278Y82378D01*
X354188Y80913D01*
X356413Y79991D01*
X358800Y79677D01*
X361187Y79991D01*
X363411Y80913D01*
X365322Y82378D01*
X366787Y84289D01*
X367709Y86513D01*
X368023Y88900D01*
X367709Y91287D01*
X366787Y93511D01*
X365322Y95422D01*
X363411Y96887D01*
X361187Y97809D01*
X358800Y98123D01*
D02*
G37*
G36*
X257200D02*
X254813Y97809D01*
X252589Y96887D01*
X250678Y95422D01*
X249213Y93511D01*
X248291Y91287D01*
X247977Y88900D01*
X248291Y86513D01*
X249213Y84289D01*
X250678Y82378D01*
X252589Y80913D01*
X254813Y79991D01*
X257200Y79677D01*
X259587Y79991D01*
X261811Y80913D01*
X263722Y82378D01*
X265187Y84289D01*
X266109Y86513D01*
X266423Y88900D01*
X266109Y91287D01*
X265187Y93511D01*
X263722Y95422D01*
X261811Y96887D01*
X259587Y97809D01*
X257200Y98123D01*
D02*
G37*
G36*
X965100Y60736D02*
X964995Y60692D01*
X964885Y60722D01*
X962274Y60378D01*
X962081Y60267D01*
X961858D01*
X959426Y59259D01*
X959268Y59102D01*
X959053Y59044D01*
X956964Y57441D01*
X956852Y57248D01*
X956659Y57136D01*
X955056Y55047D01*
X954999Y54832D01*
X954841Y54675D01*
X953833Y52242D01*
Y52019D01*
X953722Y51826D01*
X953378Y49215D01*
X953436Y49000D01*
X953378Y48785D01*
X953722Y46174D01*
X953833Y45981D01*
Y45758D01*
X954841Y43326D01*
X954999Y43168D01*
X955056Y42953D01*
X956659Y40864D01*
X956852Y40752D01*
X956964Y40559D01*
X959053Y38956D01*
X959268Y38899D01*
X959426Y38741D01*
X961858Y37734D01*
X962081D01*
X962274Y37622D01*
X964885Y37278D01*
X964995Y37308D01*
X965100Y37264D01*
X965205Y37308D01*
X965315Y37278D01*
X967926Y37622D01*
X968119Y37734D01*
X968342D01*
X970775Y38741D01*
X970932Y38899D01*
X971147Y38956D01*
X973236Y40559D01*
X973348Y40752D01*
X973541Y40864D01*
X975144Y42953D01*
X975201Y43168D01*
X975359Y43326D01*
X976367Y45758D01*
Y45981D01*
X976478Y46174D01*
X976822Y48785D01*
X976764Y49000D01*
X976822Y49215D01*
X976478Y51826D01*
X976367Y52019D01*
Y52242D01*
X975359Y54675D01*
X975201Y54832D01*
X975144Y55047D01*
X973541Y57136D01*
X973348Y57248D01*
X973236Y57441D01*
X971147Y59044D01*
X970932Y59102D01*
X970775Y59259D01*
X968342Y60267D01*
X968119D01*
X967926Y60378D01*
X965315Y60722D01*
X965205Y60692D01*
X965100Y60736D01*
D02*
G37*
G36*
X409600Y123523D02*
X407213Y123209D01*
X404989Y122287D01*
X403078Y120822D01*
X401613Y118911D01*
X400691Y116687D01*
X400377Y114300D01*
X400691Y111913D01*
X401613Y109689D01*
X403078Y107778D01*
X404989Y106313D01*
X407213Y105391D01*
X409600Y105077D01*
X411987Y105391D01*
X414211Y106313D01*
X416122Y107778D01*
X417587Y109689D01*
X418509Y111913D01*
X418823Y114300D01*
X418509Y116687D01*
X417587Y118911D01*
X416122Y120822D01*
X414211Y122287D01*
X411987Y123209D01*
X409600Y123523D01*
D02*
G37*
G36*
X384200D02*
X381813Y123209D01*
X379589Y122287D01*
X377678Y120822D01*
X376213Y118911D01*
X375291Y116687D01*
X374977Y114300D01*
X375291Y111913D01*
X376213Y109689D01*
X377678Y107778D01*
X379589Y106313D01*
X381813Y105391D01*
X384200Y105077D01*
X386587Y105391D01*
X388811Y106313D01*
X390722Y107778D01*
X392187Y109689D01*
X393109Y111913D01*
X393423Y114300D01*
X393109Y116687D01*
X392187Y118911D01*
X390722Y120822D01*
X388811Y122287D01*
X386587Y123209D01*
X384200Y123523D01*
D02*
G37*
G36*
X410616Y97989D02*
Y89916D01*
X418689D01*
X418509Y91287D01*
X417587Y93511D01*
X416122Y95422D01*
X414211Y96887D01*
X411987Y97809D01*
X410616Y97989D01*
D02*
G37*
G36*
X511200Y123523D02*
X508813Y123209D01*
X506589Y122287D01*
X504678Y120822D01*
X503213Y118911D01*
X502291Y116687D01*
X501977Y114300D01*
X502291Y111913D01*
X503213Y109689D01*
X504678Y107778D01*
X506589Y106313D01*
X508813Y105391D01*
X511200Y105077D01*
X513587Y105391D01*
X515811Y106313D01*
X517722Y107778D01*
X519187Y109689D01*
X520109Y111913D01*
X520423Y114300D01*
X520109Y116687D01*
X519187Y118911D01*
X517722Y120822D01*
X515811Y122287D01*
X513587Y123209D01*
X511200Y123523D01*
D02*
G37*
G36*
X485800D02*
X483413Y123209D01*
X481189Y122287D01*
X479278Y120822D01*
X477813Y118911D01*
X476891Y116687D01*
X476577Y114300D01*
X476891Y111913D01*
X477813Y109689D01*
X479278Y107778D01*
X481189Y106313D01*
X483413Y105391D01*
X485800Y105077D01*
X488187Y105391D01*
X490411Y106313D01*
X492322Y107778D01*
X493787Y109689D01*
X494709Y111913D01*
X495023Y114300D01*
X494709Y116687D01*
X493787Y118911D01*
X492322Y120822D01*
X490411Y122287D01*
X488187Y123209D01*
X485800Y123523D01*
D02*
G37*
G36*
X435000D02*
X432613Y123209D01*
X430388Y122287D01*
X428478Y120822D01*
X427013Y118911D01*
X426091Y116687D01*
X425777Y114300D01*
X426091Y111913D01*
X427013Y109689D01*
X428478Y107778D01*
X430388Y106313D01*
X432613Y105391D01*
X435000Y105077D01*
X437387Y105391D01*
X439611Y106313D01*
X441522Y107778D01*
X442987Y109689D01*
X443909Y111913D01*
X444223Y114300D01*
X443909Y116687D01*
X442987Y118911D01*
X441522Y120822D01*
X439611Y122287D01*
X437387Y123209D01*
X435000Y123523D01*
D02*
G37*
G36*
X520289Y87884D02*
X512216D01*
Y79811D01*
X513587Y79991D01*
X515811Y80913D01*
X517722Y82378D01*
X519187Y84289D01*
X520109Y86513D01*
X520289Y87884D01*
D02*
G37*
G36*
X418689D02*
X410616D01*
Y79811D01*
X411987Y79991D01*
X414211Y80913D01*
X416122Y82378D01*
X417587Y84289D01*
X418509Y86513D01*
X418689Y87884D01*
D02*
G37*
G36*
X342489D02*
X334416D01*
Y79811D01*
X335787Y79991D01*
X338011Y80913D01*
X339922Y82378D01*
X341387Y84289D01*
X342309Y86513D01*
X342489Y87884D01*
D02*
G37*
G36*
X512216Y97989D02*
Y89916D01*
X520289D01*
X520109Y91287D01*
X519187Y93511D01*
X517722Y95422D01*
X515811Y96887D01*
X513587Y97809D01*
X512216Y97989D01*
D02*
G37*
G36*
X408584Y97989D02*
X407213Y97809D01*
X404989Y96887D01*
X403078Y95422D01*
X401613Y93511D01*
X400691Y91287D01*
X400511Y89916D01*
X408584D01*
Y97989D01*
D02*
G37*
G36*
X510184D02*
X508813Y97809D01*
X506589Y96887D01*
X504678Y95422D01*
X503213Y93511D01*
X502291Y91287D01*
X502111Y89916D01*
X510184D01*
Y97989D01*
D02*
G37*
G36*
X789984Y482734D02*
X785763D01*
X785975Y481669D01*
X787154Y479905D01*
X788919Y478726D01*
X789984Y478514D01*
Y482734D01*
D02*
G37*
G36*
X876100Y338423D02*
X873713Y338109D01*
X871489Y337187D01*
X869578Y335722D01*
X868113Y333811D01*
X867191Y331587D01*
X866877Y329200D01*
X867191Y326813D01*
X868113Y324589D01*
X869578Y322678D01*
X871489Y321213D01*
X873713Y320291D01*
X876100Y319977D01*
X878487Y320291D01*
X880711Y321213D01*
X882622Y322678D01*
X884087Y324589D01*
X885009Y326813D01*
X885323Y329200D01*
X885009Y331587D01*
X884087Y333811D01*
X882622Y335722D01*
X880711Y337187D01*
X878487Y338109D01*
X876100Y338423D01*
D02*
G37*
G36*
X848700D02*
X846313Y338109D01*
X844089Y337187D01*
X842178Y335722D01*
X840713Y333811D01*
X839791Y331587D01*
X839477Y329200D01*
X839791Y326813D01*
X840713Y324589D01*
X842178Y322678D01*
X844089Y321213D01*
X846313Y320291D01*
X848700Y319977D01*
X851087Y320291D01*
X853311Y321213D01*
X855222Y322678D01*
X856687Y324589D01*
X857609Y326813D01*
X857923Y329200D01*
X857609Y331587D01*
X856687Y333811D01*
X855222Y335722D01*
X853311Y337187D01*
X851087Y338109D01*
X848700Y338423D01*
D02*
G37*
G36*
X870000Y574223D02*
X867613Y573909D01*
X865389Y572987D01*
X863478Y571522D01*
X862013Y569611D01*
X861091Y567387D01*
X860777Y565000D01*
X861091Y562613D01*
X861285Y562145D01*
X838284Y539144D01*
X790000D01*
X788414Y538828D01*
X787070Y537930D01*
X778570Y529430D01*
X777671Y528085D01*
X777356Y526500D01*
Y525176D01*
X777333Y525166D01*
X776850Y524000D01*
Y514000D01*
X777333Y512833D01*
X778500Y512350D01*
X784500D01*
X785666Y512833D01*
X786149Y514000D01*
Y524000D01*
X785771Y524911D01*
X791716Y530856D01*
X840000D01*
X841586Y531172D01*
X842930Y532070D01*
X867145Y556285D01*
X867613Y556091D01*
X870000Y555777D01*
X872387Y556091D01*
X874612Y557013D01*
X876522Y558478D01*
X877987Y560388D01*
X878909Y562613D01*
X879223Y565000D01*
X878909Y567387D01*
X877987Y569611D01*
X876522Y571522D01*
X874612Y572987D01*
X872387Y573909D01*
X870000Y574223D01*
D02*
G37*
G36*
X794000Y501649D02*
X792016D01*
Y495000D01*
X789984D01*
Y501649D01*
X788000D01*
X786833Y501166D01*
X786350Y500000D01*
Y495711D01*
X786209Y495000D01*
Y486181D01*
X785975Y485831D01*
X785763Y484766D01*
X796236D01*
X796024Y485831D01*
X795791Y486181D01*
Y495000D01*
X795649Y495711D01*
Y500000D01*
X795166Y501166D01*
X794000Y501649D01*
D02*
G37*
G36*
X796236Y482734D02*
X792016D01*
Y478514D01*
X793081Y478726D01*
X794845Y479905D01*
X796024Y481669D01*
X796236Y482734D01*
D02*
G37*
G36*
X959950Y336628D02*
X955731Y336213D01*
X951673Y334982D01*
X947934Y332983D01*
X944657Y330293D01*
X941967Y327016D01*
X939968Y323277D01*
X938737Y319219D01*
X938322Y315000D01*
X938737Y310781D01*
X939968Y306723D01*
X941967Y302984D01*
X944657Y299707D01*
X947934Y297017D01*
X951673Y295018D01*
X955731Y293787D01*
X959950Y293372D01*
X964169Y293787D01*
X968227Y295018D01*
X971966Y297017D01*
X975243Y299707D01*
X977933Y302984D01*
X979932Y306723D01*
X981163Y310781D01*
X981578Y315000D01*
X981163Y319219D01*
X979932Y323277D01*
X977933Y327016D01*
X975243Y330293D01*
X971966Y332983D01*
X968227Y334982D01*
X964169Y336213D01*
X959950Y336628D01*
D02*
G37*
G36*
X710050D02*
X705831Y336213D01*
X701773Y334982D01*
X698034Y332983D01*
X694757Y330293D01*
X692067Y327016D01*
X690068Y323277D01*
X688838Y319219D01*
X688422Y315000D01*
X688838Y310781D01*
X690068Y306723D01*
X692067Y302984D01*
X694757Y299707D01*
X698034Y297017D01*
X701773Y295018D01*
X705831Y293787D01*
X710050Y293372D01*
X714269Y293787D01*
X718327Y295018D01*
X722066Y297017D01*
X725343Y299707D01*
X728033Y302984D01*
X730032Y306723D01*
X731263Y310781D01*
X731678Y315000D01*
X731263Y319219D01*
X730032Y323277D01*
X728033Y327016D01*
X725343Y330293D01*
X722066Y332983D01*
X718327Y334982D01*
X714269Y336213D01*
X710050Y336628D01*
D02*
G37*
G36*
X898889Y299784D02*
X890816D01*
Y291711D01*
X892187Y291891D01*
X894411Y292813D01*
X896322Y294278D01*
X897787Y296189D01*
X898709Y298413D01*
X898889Y299784D01*
D02*
G37*
G36*
X821300Y338423D02*
X818913Y338109D01*
X816689Y337187D01*
X814778Y335722D01*
X813313Y333811D01*
X812391Y331587D01*
X812077Y329200D01*
X812204Y328233D01*
X792486Y308514D01*
X791868Y307590D01*
X791651Y306500D01*
X791651Y306500D01*
Y288430D01*
X781636Y278414D01*
X781018Y277490D01*
X780801Y276400D01*
X780801Y276400D01*
Y205037D01*
X780388Y204762D01*
X779389Y203265D01*
X779037Y201500D01*
Y193000D01*
X779389Y191235D01*
X780388Y189738D01*
X781885Y188738D01*
X783650Y188387D01*
X785415Y188738D01*
X786912Y189738D01*
X787912Y191235D01*
X788263Y193000D01*
Y201500D01*
X787912Y203265D01*
X786912Y204762D01*
X786499Y205037D01*
Y275220D01*
X796514Y285236D01*
X797132Y286160D01*
X797349Y287250D01*
X797349Y287250D01*
Y298881D01*
X798619Y298965D01*
X798691Y298413D01*
X799613Y296189D01*
X801078Y294278D01*
X802989Y292813D01*
X804751Y292083D01*
Y263780D01*
X794336Y253364D01*
X793718Y252440D01*
X793501Y251350D01*
X793501Y251350D01*
Y205037D01*
X793088Y204762D01*
X792088Y203265D01*
X791737Y201500D01*
Y193000D01*
X792088Y191235D01*
X793088Y189738D01*
X794585Y188738D01*
X796350Y188387D01*
X798115Y188738D01*
X799612Y189738D01*
X800611Y191235D01*
X800963Y193000D01*
Y201500D01*
X800611Y203265D01*
X799612Y204762D01*
X799199Y205037D01*
Y250170D01*
X809614Y260586D01*
X810232Y261510D01*
X810449Y262600D01*
X810449Y262600D01*
Y292083D01*
X812212Y292813D01*
X814122Y294278D01*
X815587Y296189D01*
X816509Y298413D01*
X816823Y300800D01*
X816509Y303187D01*
X815587Y305411D01*
X814122Y307322D01*
X812212Y308787D01*
X809987Y309709D01*
X807600Y310023D01*
X805213Y309709D01*
X802989Y308787D01*
X801901Y307952D01*
X801384Y308176D01*
X800788Y308700D01*
X800798Y308769D01*
X814712Y322683D01*
X814779Y322678D01*
X816689Y321213D01*
X818913Y320291D01*
X821300Y319977D01*
X823687Y320291D01*
X825911Y321213D01*
X827822Y322678D01*
X829287Y324589D01*
X830209Y326813D01*
X830523Y329200D01*
X830209Y331587D01*
X829287Y333811D01*
X827822Y335722D01*
X825911Y337187D01*
X823687Y338109D01*
X821300Y338423D01*
D02*
G37*
G36*
X890816Y309889D02*
Y301816D01*
X898889D01*
X898709Y303187D01*
X897787Y305411D01*
X896322Y307322D01*
X894411Y308787D01*
X892187Y309709D01*
X890816Y309889D01*
D02*
G37*
G36*
X888784D02*
X887413Y309709D01*
X885189Y308787D01*
X883278Y307322D01*
X881813Y305411D01*
X880891Y303187D01*
X880711Y301816D01*
X888784D01*
Y309889D01*
D02*
G37*
G36*
X821300Y678423D02*
X818913Y678109D01*
X816689Y677187D01*
X814778Y675722D01*
X813313Y673811D01*
X812391Y671587D01*
X812077Y669200D01*
X812391Y666813D01*
X813313Y664589D01*
X814778Y662678D01*
X816689Y661213D01*
X818913Y660291D01*
X821300Y659977D01*
X823687Y660291D01*
X825911Y661213D01*
X827822Y662678D01*
X829287Y664589D01*
X830209Y666813D01*
X830523Y669200D01*
X830209Y671587D01*
X829287Y673811D01*
X827822Y675722D01*
X825911Y677187D01*
X823687Y678109D01*
X821300Y678423D01*
D02*
G37*
G36*
X793900D02*
X791513Y678109D01*
X789289Y677187D01*
X787378Y675722D01*
X785913Y673811D01*
X784991Y671587D01*
X784677Y669200D01*
X784991Y666813D01*
X785913Y664589D01*
X787378Y662678D01*
X789289Y661213D01*
X791513Y660291D01*
X793900Y659977D01*
X796287Y660291D01*
X798512Y661213D01*
X800422Y662678D01*
X801887Y664589D01*
X802809Y666813D01*
X803123Y669200D01*
X802809Y671587D01*
X801887Y673811D01*
X800422Y675722D01*
X798512Y677187D01*
X796287Y678109D01*
X793900Y678423D01*
D02*
G37*
G36*
X959950Y676628D02*
X955731Y676213D01*
X951673Y674982D01*
X947934Y672983D01*
X944657Y670293D01*
X941967Y667016D01*
X939968Y663277D01*
X938737Y659220D01*
X938322Y655000D01*
X938737Y650781D01*
X939968Y646723D01*
X941967Y642984D01*
X944657Y639707D01*
X947934Y637017D01*
X951673Y635018D01*
X955731Y633787D01*
X959950Y633372D01*
X964169Y633787D01*
X968227Y635018D01*
X971966Y637017D01*
X975243Y639707D01*
X977933Y642984D01*
X979932Y646723D01*
X981163Y650781D01*
X981578Y655000D01*
X981163Y659220D01*
X979932Y663277D01*
X977933Y667016D01*
X975243Y670293D01*
X971966Y672983D01*
X968227Y674982D01*
X964169Y676213D01*
X959950Y676628D01*
D02*
G37*
G36*
X965100Y753636D02*
X964995Y753592D01*
X964885Y753622D01*
X962274Y753278D01*
X962081Y753167D01*
X961858D01*
X959426Y752159D01*
X959268Y752001D01*
X959053Y751944D01*
X956964Y750341D01*
X956852Y750148D01*
X956659Y750036D01*
X955056Y747947D01*
X954999Y747732D01*
X954841Y747574D01*
X953833Y745142D01*
Y744919D01*
X953722Y744726D01*
X953378Y742115D01*
X953436Y741900D01*
X953378Y741685D01*
X953722Y739074D01*
X953833Y738881D01*
Y738658D01*
X954841Y736226D01*
X954999Y736068D01*
X955056Y735853D01*
X956659Y733764D01*
X956852Y733652D01*
X956964Y733459D01*
X959053Y731856D01*
X959268Y731798D01*
X959426Y731641D01*
X961858Y730633D01*
X962081D01*
X962274Y730522D01*
X964885Y730178D01*
X964995Y730208D01*
X965100Y730164D01*
X965205Y730208D01*
X965315Y730178D01*
X967926Y730522D01*
X968119Y730633D01*
X968342D01*
X970775Y731641D01*
X970932Y731798D01*
X971147Y731856D01*
X973236Y733459D01*
X973348Y733652D01*
X973541Y733764D01*
X975144Y735853D01*
X975201Y736068D01*
X975359Y736226D01*
X976367Y738658D01*
Y738881D01*
X976478Y739074D01*
X976822Y741685D01*
X976764Y741900D01*
X976822Y742115D01*
X976478Y744726D01*
X976367Y744919D01*
Y745142D01*
X975359Y747574D01*
X975201Y747732D01*
X975144Y747947D01*
X973541Y750036D01*
X973348Y750148D01*
X973236Y750341D01*
X971147Y751944D01*
X970932Y752001D01*
X970775Y752159D01*
X968342Y753167D01*
X968119D01*
X967926Y753278D01*
X965315Y753622D01*
X965205Y753592D01*
X965100Y753636D01*
D02*
G37*
G36*
X876100Y678423D02*
X873713Y678109D01*
X871489Y677187D01*
X869578Y675722D01*
X868113Y673811D01*
X867191Y671587D01*
X866877Y669200D01*
X867191Y666813D01*
X868113Y664589D01*
X869578Y662678D01*
X871489Y661213D01*
X873713Y660291D01*
X876100Y659977D01*
X878487Y660291D01*
X880711Y661213D01*
X882622Y662678D01*
X884087Y664589D01*
X885009Y666813D01*
X885323Y669200D01*
X885009Y671587D01*
X884087Y673811D01*
X882622Y675722D01*
X880711Y677187D01*
X878487Y678109D01*
X876100Y678423D01*
D02*
G37*
G36*
X848700D02*
X846313Y678109D01*
X844089Y677187D01*
X842178Y675722D01*
X840713Y673811D01*
X839791Y671587D01*
X839477Y669200D01*
X839791Y666813D01*
X840713Y664589D01*
X842178Y662678D01*
X844089Y661213D01*
X846313Y660291D01*
X848700Y659977D01*
X851087Y660291D01*
X853311Y661213D01*
X855222Y662678D01*
X856687Y664589D01*
X857609Y666813D01*
X857923Y669200D01*
X857609Y671587D01*
X856687Y673811D01*
X855222Y675722D01*
X853311Y677187D01*
X851087Y678109D01*
X848700Y678423D01*
D02*
G37*
G36*
X835000Y650023D02*
X832613Y649709D01*
X830389Y648787D01*
X828478Y647322D01*
X827013Y645412D01*
X826091Y643187D01*
X825777Y640800D01*
X826091Y638413D01*
X827013Y636189D01*
X828478Y634278D01*
X830389Y632813D01*
X832613Y631891D01*
X835000Y631577D01*
X837387Y631891D01*
X839612Y632813D01*
X841522Y634278D01*
X842987Y636189D01*
X843909Y638413D01*
X844223Y640800D01*
X843909Y643187D01*
X842987Y645412D01*
X841522Y647322D01*
X839612Y648787D01*
X837387Y649709D01*
X835000Y650023D01*
D02*
G37*
G36*
X807600D02*
X805213Y649709D01*
X802989Y648787D01*
X801078Y647322D01*
X799613Y645412D01*
X798691Y643187D01*
X798377Y640800D01*
X798691Y638413D01*
X799613Y636189D01*
X801078Y634278D01*
X802989Y632813D01*
X805213Y631891D01*
X807600Y631577D01*
X809987Y631891D01*
X812212Y632813D01*
X814122Y634278D01*
X815587Y636189D01*
X816509Y638413D01*
X816823Y640800D01*
X816509Y643187D01*
X815587Y645412D01*
X814122Y647322D01*
X812212Y648787D01*
X809987Y649709D01*
X807600Y650023D01*
D02*
G37*
G36*
X780200D02*
X777813Y649709D01*
X775589Y648787D01*
X773678Y647322D01*
X772213Y645412D01*
X771291Y643187D01*
X770977Y640800D01*
X771291Y638413D01*
X772213Y636189D01*
X773678Y634278D01*
X775589Y632813D01*
X777813Y631891D01*
X780200Y631577D01*
X782587Y631891D01*
X784811Y632813D01*
X786722Y634278D01*
X788187Y636189D01*
X789109Y638413D01*
X789423Y640800D01*
X789109Y643187D01*
X788187Y645412D01*
X786722Y647322D01*
X784811Y648787D01*
X782587Y649709D01*
X780200Y650023D01*
D02*
G37*
G36*
X710050Y676628D02*
X705831Y676213D01*
X701773Y674982D01*
X698034Y672983D01*
X694757Y670293D01*
X692067Y667016D01*
X690068Y663277D01*
X688838Y659220D01*
X688422Y655000D01*
X688838Y650781D01*
X690068Y646723D01*
X692067Y642984D01*
X694757Y639707D01*
X698034Y637017D01*
X701773Y635018D01*
X705831Y633787D01*
X710050Y633372D01*
X714269Y633787D01*
X718327Y635018D01*
X722066Y637017D01*
X725343Y639707D01*
X728033Y642984D01*
X730032Y646723D01*
X731263Y650781D01*
X731678Y655000D01*
X731263Y659220D01*
X730032Y663277D01*
X728033Y667016D01*
X725343Y670293D01*
X722066Y672983D01*
X718327Y674982D01*
X714269Y676213D01*
X710050Y676628D01*
D02*
G37*
G36*
X889800Y650023D02*
X887413Y649709D01*
X885189Y648787D01*
X883278Y647322D01*
X881813Y645412D01*
X880891Y643187D01*
X880577Y640800D01*
X880891Y638413D01*
X881813Y636189D01*
X883278Y634278D01*
X885189Y632813D01*
X887413Y631891D01*
X889800Y631577D01*
X892187Y631891D01*
X894411Y632813D01*
X896322Y634278D01*
X897787Y636189D01*
X898709Y638413D01*
X899023Y640800D01*
X898709Y643187D01*
X897787Y645412D01*
X896322Y647322D01*
X894411Y648787D01*
X892187Y649709D01*
X889800Y650023D01*
D02*
G37*
G36*
X862400D02*
X860013Y649709D01*
X857789Y648787D01*
X855878Y647322D01*
X854413Y645412D01*
X853491Y643187D01*
X853177Y640800D01*
X853491Y638413D01*
X854413Y636189D01*
X855878Y634278D01*
X857789Y632813D01*
X860013Y631891D01*
X862400Y631577D01*
X864787Y631891D01*
X867011Y632813D01*
X868922Y634278D01*
X870387Y636189D01*
X871309Y638413D01*
X871623Y640800D01*
X871309Y643187D01*
X870387Y645412D01*
X868922Y647322D01*
X867011Y648787D01*
X864787Y649709D01*
X862400Y650023D01*
D02*
G37*
G36*
X888784Y299784D02*
X880711D01*
X880891Y298413D01*
X881813Y296189D01*
X883278Y294278D01*
X885189Y292813D01*
X887413Y291891D01*
X888784Y291711D01*
Y299784D01*
D02*
G37*
G36*
X774250Y228650D02*
X762750D01*
X761584Y228166D01*
X761100Y227000D01*
Y213000D01*
X761584Y211834D01*
X762750Y211350D01*
X767842D01*
Y204864D01*
X767688Y204762D01*
X766689Y203265D01*
X766337Y201500D01*
Y193000D01*
X766689Y191235D01*
X767688Y189738D01*
X769185Y188738D01*
X770950Y188387D01*
X772715Y188738D01*
X774212Y189738D01*
X775211Y191235D01*
X775563Y193000D01*
Y201500D01*
X775211Y203265D01*
X774212Y204762D01*
X774058Y204864D01*
Y211350D01*
X774250D01*
X775416Y211834D01*
X775900Y213000D01*
Y227000D01*
X775416Y228166D01*
X774250Y228650D01*
D02*
G37*
G36*
X775000Y501649D02*
X769000D01*
X767834Y501166D01*
X767350Y500000D01*
Y490000D01*
X767834Y488833D01*
X769000Y488350D01*
X769151D01*
Y449180D01*
X751236Y431264D01*
X750618Y430340D01*
X750401Y429250D01*
X750401Y429250D01*
Y246930D01*
X688820Y185349D01*
X281814D01*
X280724Y185132D01*
X279800Y184514D01*
X279800Y184514D01*
X229126Y133840D01*
X228508Y132916D01*
X228291Y131826D01*
X228291Y131826D01*
Y88138D01*
X228291Y88138D01*
X228508Y87048D01*
X229126Y86124D01*
X247414Y67836D01*
X247414Y67836D01*
X248338Y67218D01*
X249428Y67001D01*
X249428Y67001D01*
X365150D01*
X365150Y67001D01*
X366240Y67218D01*
X367164Y67836D01*
X380050Y80722D01*
X381813Y79991D01*
X384200Y79677D01*
X386587Y79991D01*
X388811Y80913D01*
X390722Y82378D01*
X392187Y84289D01*
X393109Y86513D01*
X393423Y88900D01*
X393109Y91287D01*
X392187Y93511D01*
X390722Y95422D01*
X388811Y96887D01*
X386587Y97809D01*
X384200Y98123D01*
X381813Y97809D01*
X379589Y96887D01*
X377678Y95422D01*
X376213Y93511D01*
X375291Y91287D01*
X374977Y88900D01*
X375291Y86513D01*
X376021Y84750D01*
X363970Y72699D01*
X250608D01*
X233989Y89318D01*
Y130646D01*
X282994Y179651D01*
X690000D01*
X690000Y179651D01*
X691090Y179868D01*
X692014Y180486D01*
X755264Y243736D01*
X755264Y243736D01*
X755882Y244660D01*
X756099Y245750D01*
Y428070D01*
X774014Y445986D01*
X774014Y445986D01*
X774632Y446910D01*
X774849Y448000D01*
X774849Y448000D01*
Y488350D01*
X775000D01*
X776167Y488833D01*
X776650Y490000D01*
Y500000D01*
X776167Y501166D01*
X775000Y501649D01*
D02*
G37*
G36*
X584984Y161984D02*
X580764D01*
X580976Y160919D01*
X582155Y159155D01*
X583919Y157976D01*
X584984Y157764D01*
Y161984D01*
D02*
G37*
G36*
X638000Y175650D02*
X618000D01*
X616834Y175166D01*
X616350Y174000D01*
Y160000D01*
X616834Y158834D01*
X618000Y158350D01*
X638000D01*
X639166Y158834D01*
X639650Y160000D01*
Y174000D01*
X639166Y175166D01*
X638000Y175650D01*
D02*
G37*
G36*
X607250Y171150D02*
X601016D01*
Y164016D01*
X608899D01*
Y169500D01*
X608416Y170667D01*
X607250Y171150D01*
D02*
G37*
G36*
X584984Y168237D02*
X583919Y168025D01*
X582155Y166846D01*
X580976Y165081D01*
X580764Y164016D01*
X584984D01*
Y168237D01*
D02*
G37*
G36*
X809050Y206113D02*
X807285Y205762D01*
X805788Y204762D01*
X804789Y203265D01*
X804437Y201500D01*
Y193000D01*
X804789Y191235D01*
X805788Y189738D01*
X807285Y188738D01*
X809050Y188387D01*
X810815Y188738D01*
X812312Y189738D01*
X813311Y191235D01*
X813663Y193000D01*
Y201500D01*
X813311Y203265D01*
X812312Y204762D01*
X810815Y205762D01*
X809050Y206113D01*
D02*
G37*
G36*
X931984Y233237D02*
X930919Y233025D01*
X929155Y231846D01*
X927976Y230081D01*
X927764Y229016D01*
X931984D01*
Y233237D01*
D02*
G37*
G36*
X938236Y226984D02*
X927764D01*
X927976Y225919D01*
X928476Y225170D01*
X927797Y223900D01*
X926500D01*
X925938Y223667D01*
X925000Y223482D01*
X924063Y223667D01*
X923500Y223900D01*
X910500D01*
X909334Y223417D01*
X908851Y222250D01*
Y207750D01*
X909334Y206584D01*
X910500Y206101D01*
X915151D01*
Y193500D01*
X915151Y193500D01*
X915368Y192410D01*
X915985Y191486D01*
X924736Y182736D01*
X924736Y182736D01*
X925660Y182118D01*
X926750Y181901D01*
X926750Y181901D01*
X931240D01*
X931368Y181749D01*
X931802Y180631D01*
X931195Y179723D01*
X930902Y178250D01*
X931195Y176777D01*
X931812Y175854D01*
X931946Y175000D01*
X931812Y174146D01*
X931195Y173223D01*
X930902Y171750D01*
X931195Y170278D01*
X932029Y169029D01*
Y167971D01*
X931195Y166723D01*
X930902Y165250D01*
X931195Y163778D01*
X931802Y162869D01*
X931368Y161751D01*
X931240Y161599D01*
X928250D01*
X927160Y161382D01*
X926236Y160764D01*
X926236Y160764D01*
X915985Y150514D01*
X915368Y149590D01*
X915151Y148500D01*
X915151Y148500D01*
Y143899D01*
X911500D01*
X910937Y143666D01*
X910000Y143482D01*
X909062Y143666D01*
X908500Y143899D01*
X903016D01*
Y135000D01*
Y126100D01*
X908500D01*
X909666Y126583D01*
X910333Y126583D01*
X911500Y126100D01*
X924500D01*
X925666Y126583D01*
X926150Y127750D01*
Y142250D01*
X925666Y143416D01*
X924500Y143899D01*
X920849D01*
Y147320D01*
X929430Y155901D01*
X931240D01*
X931368Y155749D01*
X931802Y154631D01*
X931195Y153723D01*
X930902Y152250D01*
X931195Y150778D01*
X932029Y149529D01*
X933278Y148695D01*
X934750Y148402D01*
X944250D01*
X945723Y148695D01*
X946780Y149401D01*
X948320D01*
X952735Y144986D01*
X952736Y144986D01*
X953660Y144368D01*
X954750Y144151D01*
X954750Y144151D01*
X956100D01*
Y140500D01*
X956583Y139334D01*
X957750Y138851D01*
X972250D01*
X973416Y139334D01*
X973899Y140500D01*
Y153500D01*
X973666Y154063D01*
X973482Y155000D01*
X973666Y155938D01*
X973899Y156500D01*
Y169500D01*
X973416Y170667D01*
X972250Y171150D01*
X957750D01*
X956583Y170667D01*
X956100Y169500D01*
Y168099D01*
X950350D01*
X949965Y169369D01*
X950514Y169736D01*
X955181Y174402D01*
X956583Y174334D01*
X956583Y174334D01*
X957750Y173851D01*
X972250D01*
X973416Y174334D01*
X973899Y175500D01*
Y188500D01*
X973666Y189063D01*
X973482Y190000D01*
X973666Y190938D01*
X973899Y191500D01*
Y204500D01*
X973416Y205667D01*
X972250Y206150D01*
X957750D01*
X956583Y205667D01*
X956100Y204500D01*
Y200849D01*
X954750D01*
X954750Y200849D01*
X953660Y200632D01*
X952736Y200014D01*
X952736Y200014D01*
X949125Y196404D01*
X947955Y197029D01*
X948098Y197750D01*
X947805Y199223D01*
X946971Y200471D01*
X945723Y201305D01*
X944250Y201598D01*
X934750D01*
X933278Y201305D01*
X932029Y200471D01*
X931195Y199223D01*
X930902Y197750D01*
X931195Y196278D01*
X932029Y195029D01*
Y193971D01*
X931195Y192723D01*
X930902Y191250D01*
X931195Y189778D01*
X931802Y188869D01*
X931368Y187751D01*
X931240Y187599D01*
X927930D01*
X920849Y194680D01*
Y206101D01*
X923500D01*
X924063Y206334D01*
X925000Y206518D01*
X925938Y206334D01*
X926500Y206101D01*
X931984D01*
Y215000D01*
X933000D01*
Y216016D01*
X941150D01*
Y222250D01*
X940667Y223417D01*
X939500Y223900D01*
X938203D01*
X937524Y225170D01*
X938025Y225919D01*
X938236Y226984D01*
D02*
G37*
G36*
X934016Y233237D02*
Y229016D01*
X938236D01*
X938025Y230081D01*
X936846Y231846D01*
X935081Y233025D01*
X934016Y233237D01*
D02*
G37*
G36*
X835000Y310023D02*
X832613Y309709D01*
X830389Y308787D01*
X828478Y307322D01*
X827013Y305411D01*
X826091Y303187D01*
X825777Y300800D01*
X826091Y298413D01*
X827013Y296189D01*
X828478Y294278D01*
X830389Y292813D01*
X832613Y291891D01*
X835000Y291577D01*
X837387Y291891D01*
X839612Y292813D01*
X841522Y294278D01*
X842987Y296189D01*
X843909Y298413D01*
X844223Y300800D01*
X843909Y303187D01*
X842987Y305411D01*
X841522Y307322D01*
X839612Y308787D01*
X837387Y309709D01*
X835000Y310023D01*
D02*
G37*
G36*
X780200D02*
X777813Y309709D01*
X775589Y308787D01*
X773678Y307322D01*
X772213Y305411D01*
X771291Y303187D01*
X770977Y300800D01*
X771291Y298413D01*
X772213Y296189D01*
X773678Y294278D01*
X775589Y292813D01*
X777813Y291891D01*
X780200Y291577D01*
X782587Y291891D01*
X784811Y292813D01*
X786722Y294278D01*
X788187Y296189D01*
X789109Y298413D01*
X789423Y300800D01*
X789109Y303187D01*
X788187Y305411D01*
X786722Y307322D01*
X784811Y308787D01*
X782587Y309709D01*
X780200Y310023D01*
D02*
G37*
G36*
X757250Y228650D02*
X752516D01*
Y221016D01*
X758900D01*
Y227000D01*
X758417Y228166D01*
X757250Y228650D01*
D02*
G37*
G36*
X750484Y218984D02*
X744101D01*
Y213000D01*
X744584Y211834D01*
X745750Y211350D01*
X750484D01*
Y218984D01*
D02*
G37*
G36*
X941150Y213984D02*
X934016D01*
Y206101D01*
X939500D01*
X940667Y206584D01*
X941150Y207750D01*
Y213984D01*
D02*
G37*
G36*
X827000Y348099D02*
X827000Y348099D01*
X809950D01*
X808860Y347882D01*
X807936Y347264D01*
X807936Y347264D01*
X798050Y337379D01*
X796287Y338109D01*
X793900Y338423D01*
X791513Y338109D01*
X789289Y337187D01*
X787378Y335722D01*
X785913Y333811D01*
X784991Y331587D01*
X784677Y329200D01*
X784991Y326813D01*
X785913Y324589D01*
X787378Y322678D01*
X789289Y321213D01*
X791513Y320291D01*
X793900Y319977D01*
X796287Y320291D01*
X798512Y321213D01*
X800422Y322678D01*
X801887Y324589D01*
X802809Y326813D01*
X803123Y329200D01*
X802809Y331587D01*
X802078Y333350D01*
X811130Y342401D01*
X825820D01*
X831901Y336320D01*
Y321250D01*
X831901Y321250D01*
X832118Y320160D01*
X832736Y319236D01*
X846401Y305570D01*
Y243750D01*
X846401Y243750D01*
X846618Y242660D01*
X847236Y241736D01*
X886284Y202687D01*
X885658Y201517D01*
X885250Y201598D01*
X875750D01*
X874277Y201305D01*
X873029Y200471D01*
X872195Y199223D01*
X871902Y197750D01*
X872195Y196278D01*
X873029Y195029D01*
Y193971D01*
X872195Y192723D01*
X871902Y191250D01*
X872195Y189778D01*
X872802Y188869D01*
X872368Y187751D01*
X872240Y187599D01*
X864500D01*
X864500Y187599D01*
X863410Y187382D01*
X862486Y186764D01*
X852736Y177014D01*
X852118Y176090D01*
X851901Y175000D01*
X851901Y175000D01*
Y103680D01*
X780820Y32599D01*
X777170D01*
X777045Y33869D01*
X777581Y33976D01*
X779346Y35154D01*
X780525Y36919D01*
X780938Y39000D01*
X780765Y39870D01*
X848197Y107303D01*
X848871Y108311D01*
X849108Y109500D01*
Y182000D01*
X848871Y183189D01*
X848197Y184198D01*
X838650Y193745D01*
Y199250D01*
X838166Y200417D01*
X837000Y200900D01*
X823000D01*
X821834Y200417D01*
X821350Y199250D01*
Y187750D01*
X821834Y186584D01*
X823000Y186101D01*
X837000D01*
X837357Y186248D01*
X842892Y180713D01*
Y110787D01*
X776370Y44265D01*
X775500Y44439D01*
X773419Y44025D01*
X771654Y42846D01*
X770475Y41081D01*
X770061Y39000D01*
X770475Y36919D01*
X771654Y35154D01*
X773419Y33976D01*
X773955Y33869D01*
X773830Y32599D01*
X530992D01*
X488649Y74942D01*
Y80183D01*
X490411Y80913D01*
X492322Y82378D01*
X493787Y84289D01*
X494709Y86513D01*
X495023Y88900D01*
X494709Y91287D01*
X493787Y93511D01*
X492322Y95422D01*
X490411Y96887D01*
X488187Y97809D01*
X485800Y98123D01*
X483413Y97809D01*
X481189Y96887D01*
X479278Y95422D01*
X477813Y93511D01*
X476891Y91287D01*
X476577Y88900D01*
X476891Y86513D01*
X477813Y84289D01*
X479278Y82378D01*
X481189Y80913D01*
X482951Y80183D01*
Y73762D01*
X482951Y73762D01*
X483168Y72672D01*
X483786Y71748D01*
X526665Y28869D01*
X526138Y27599D01*
X495718D01*
X463249Y60068D01*
Y80183D01*
X465011Y80913D01*
X466922Y82378D01*
X468387Y84289D01*
X469309Y86513D01*
X469623Y88900D01*
X469309Y91287D01*
X468387Y93511D01*
X466922Y95422D01*
X465011Y96887D01*
X462787Y97809D01*
X460400Y98123D01*
X458013Y97809D01*
X455788Y96887D01*
X453878Y95422D01*
X452413Y93511D01*
X451491Y91287D01*
X451177Y88900D01*
X451491Y86513D01*
X452413Y84289D01*
X453878Y82378D01*
X455788Y80913D01*
X457551Y80183D01*
Y58888D01*
X457551Y58888D01*
X457768Y57798D01*
X458386Y56874D01*
X492524Y22736D01*
X492524Y22736D01*
X493448Y22118D01*
X494538Y21901D01*
X494538Y21901D01*
X784500D01*
X784500Y21901D01*
X785590Y22118D01*
X786514Y22736D01*
X862014Y98236D01*
X862014Y98236D01*
X862122Y98397D01*
X863392Y98012D01*
Y80641D01*
X806812Y24061D01*
X805942Y24234D01*
X803861Y23821D01*
X802096Y22642D01*
X800918Y20877D01*
X800503Y18796D01*
X800918Y16715D01*
X802096Y14950D01*
X803861Y13772D01*
X805942Y13357D01*
X808023Y13772D01*
X809788Y14950D01*
X810966Y16715D01*
X811380Y18796D01*
X811207Y19666D01*
X868698Y77157D01*
X869371Y78165D01*
X869608Y79354D01*
Y147213D01*
X871537Y149142D01*
X873608D01*
X874277Y148695D01*
X875750Y148402D01*
X885250D01*
X886722Y148695D01*
X887971Y149529D01*
X888805Y150778D01*
X889098Y152250D01*
X888805Y153723D01*
X888640Y153970D01*
X889253Y155337D01*
X889768Y155409D01*
X889829Y155391D01*
X890154Y154904D01*
X891919Y153726D01*
X892984Y153514D01*
Y158750D01*
X894000D01*
Y159766D01*
X899236D01*
X899025Y160831D01*
X897846Y162596D01*
X896242Y163667D01*
X895729Y164951D01*
X902764Y171986D01*
X903382Y172910D01*
X903599Y174000D01*
X903599Y174000D01*
Y204250D01*
X903599Y204250D01*
X903382Y205340D01*
X902764Y206264D01*
X865249Y243780D01*
Y292083D01*
X867011Y292813D01*
X868922Y294278D01*
X870387Y296189D01*
X871309Y298413D01*
X871623Y300800D01*
X871309Y303187D01*
X870387Y305411D01*
X868922Y307322D01*
X867011Y308787D01*
X864787Y309709D01*
X862400Y310023D01*
X860013Y309709D01*
X857789Y308787D01*
X855878Y307322D01*
X854413Y305411D01*
X853491Y303187D01*
X853369Y302255D01*
X852099Y302339D01*
Y306750D01*
X851882Y307840D01*
X851264Y308764D01*
X851264Y308764D01*
X837599Y322430D01*
Y337500D01*
X837599Y337500D01*
X837382Y338590D01*
X836764Y339514D01*
X829014Y347264D01*
X828090Y347882D01*
X827000Y348099D01*
D02*
G37*
G36*
X750484Y228650D02*
X745750D01*
X744584Y228166D01*
X744101Y227000D01*
Y221016D01*
X750484D01*
Y228650D01*
D02*
G37*
G36*
X758900Y218984D02*
X752516D01*
Y211350D01*
X757250D01*
X758417Y211834D01*
X758900Y213000D01*
Y218984D01*
D02*
G37*
%LPD*%
G36*
X872368Y175250D02*
X872802Y174131D01*
X872195Y173223D01*
X871902Y171750D01*
X872195Y170278D01*
X873029Y169029D01*
Y167971D01*
X872195Y166723D01*
X871902Y165250D01*
X872195Y163778D01*
X872812Y162854D01*
X872946Y162000D01*
X872812Y161147D01*
X872195Y160223D01*
X872104Y159766D01*
X880500D01*
Y157734D01*
X872104D01*
X872195Y157277D01*
X872629Y156628D01*
X871950Y155358D01*
X870250D01*
X869061Y155121D01*
X868053Y154447D01*
X864303Y150697D01*
X864119Y150422D01*
X862849Y150808D01*
Y170570D01*
X867680Y175401D01*
X872240D01*
X872368Y175250D01*
D02*
G37*
D10*
X772000Y495000D02*
D03*
X791000D02*
D03*
X781500Y519000D02*
D03*
D11*
X620500Y124250D02*
D03*
Y117750D02*
D03*
Y111250D02*
D03*
Y104750D02*
D03*
Y98250D02*
D03*
Y91750D02*
D03*
Y85250D02*
D03*
Y78750D02*
D03*
Y72250D02*
D03*
Y65750D02*
D03*
X679500Y124250D02*
D03*
Y117750D02*
D03*
Y111250D02*
D03*
Y104750D02*
D03*
Y98250D02*
D03*
Y91750D02*
D03*
Y85250D02*
D03*
Y78750D02*
D03*
Y72250D02*
D03*
Y65750D02*
D03*
X880500Y197750D02*
D03*
Y191250D02*
D03*
Y184750D02*
D03*
Y178250D02*
D03*
Y171750D02*
D03*
Y165250D02*
D03*
Y158750D02*
D03*
Y152250D02*
D03*
X939500Y197750D02*
D03*
Y191250D02*
D03*
Y184750D02*
D03*
Y178250D02*
D03*
Y171750D02*
D03*
Y165250D02*
D03*
Y158750D02*
D03*
Y152250D02*
D03*
D12*
X770950Y142750D02*
D03*
X783650D02*
D03*
X796350D02*
D03*
X809050D02*
D03*
X770950Y197250D02*
D03*
X783650D02*
D03*
X796350D02*
D03*
X809050D02*
D03*
D13*
X965000Y147000D02*
D03*
Y163000D02*
D03*
Y182000D02*
D03*
Y198000D02*
D03*
X700000Y163000D02*
D03*
Y147000D02*
D03*
X600000Y147000D02*
D03*
Y163000D02*
D03*
D14*
X918000Y135000D02*
D03*
X902000D02*
D03*
X917000Y215000D02*
D03*
X933000D02*
D03*
X608000Y45000D02*
D03*
X592000D02*
D03*
X798000Y120000D02*
D03*
X782000D02*
D03*
D15*
X830000Y141500D02*
D03*
Y158500D02*
D03*
X750000Y141500D02*
D03*
Y158500D02*
D03*
X830000Y193500D02*
D03*
Y176500D02*
D03*
X750000Y193500D02*
D03*
Y176500D02*
D03*
D16*
X626500Y45000D02*
D03*
X643500D02*
D03*
X768500Y220000D02*
D03*
X751500D02*
D03*
D17*
X672000Y167000D02*
D03*
Y143000D02*
D03*
X628000D02*
D03*
Y167000D02*
D03*
D18*
X690000Y182500D02*
X753250Y245750D01*
X281814Y182500D02*
X690000D01*
X753250Y245750D02*
Y429250D01*
X880500Y165354D02*
X892104D01*
X772000Y448000D02*
Y495000D01*
X753250Y429250D02*
X772000Y448000D01*
X586000Y163000D02*
X600000D01*
X700000Y147000D02*
X714000D01*
X793900Y329200D02*
X809950Y345250D01*
X827000D01*
X834750Y337500D01*
Y321250D02*
Y337500D01*
Y321250D02*
X849250Y306750D01*
Y243750D02*
Y306750D01*
X862400Y242600D02*
Y300800D01*
X807600Y262600D02*
Y300800D01*
X796350Y251350D02*
X807600Y262600D01*
X796350Y197250D02*
Y251350D01*
X817200Y329200D02*
X821300D01*
X794500Y306500D02*
X817200Y329200D01*
X794500Y287250D02*
Y306500D01*
X783650Y276400D02*
X794500Y287250D01*
X783650Y197250D02*
Y276400D01*
X672000Y167000D02*
X687000Y152000D01*
Y137000D02*
Y152000D01*
Y137000D02*
X691250Y132750D01*
X695500D01*
X701250Y127000D01*
Y120250D02*
Y127000D01*
X692250Y111250D02*
X701250Y120250D01*
X679500Y111250D02*
X692250D01*
X592564Y126686D02*
X608000Y111250D01*
X626750Y130750D02*
X635750Y121750D01*
X529812Y29750D02*
X782000D01*
X608000Y111250D02*
X620500D01*
X601980Y78750D02*
X620500D01*
X635750Y95250D02*
Y121750D01*
X632250Y91750D02*
X635750Y95250D01*
X620500Y91750D02*
X632250D01*
X653250Y117750D02*
X679500D01*
X628000Y143000D02*
X653250Y117750D01*
X624000Y147000D02*
X628000Y143000D01*
X600000Y147000D02*
X624000D01*
X696000Y167000D02*
X700000Y163000D01*
X672000Y167000D02*
X696000D01*
X828750Y142750D02*
X830000Y141500D01*
X809050Y142750D02*
X828750D01*
X769700Y141500D02*
X770950Y142750D01*
X750000Y141500D02*
X769700D01*
X866500Y178250D02*
X880500D01*
X864500Y184750D02*
X880500D01*
X862400Y242600D02*
X900750Y204250D01*
Y174000D02*
Y204250D01*
X892104Y165354D02*
X900750Y174000D01*
X880500Y165250D02*
Y165354D01*
X849250Y243750D02*
X895000Y198000D01*
Y175750D02*
Y198000D01*
X891000Y171750D02*
X895000Y175750D01*
X880500Y171750D02*
X891000D01*
X933000Y215000D02*
Y228000D01*
X643500Y45000D02*
Y63500D01*
X634750Y72250D02*
X643500Y63500D01*
X620500Y72250D02*
X634750D01*
X809050Y96300D02*
Y142750D01*
X762500Y49750D02*
X809050Y96300D01*
X667750Y49750D02*
X762500D01*
X660750Y56750D02*
X667750Y49750D01*
X660750Y56750D02*
Y65250D01*
X667750Y72250D01*
X679500D01*
X720750Y65750D02*
X750000Y95000D01*
X679500Y65750D02*
X720750D01*
X750000Y95000D02*
Y141500D01*
X888000Y135000D02*
X902000D01*
X768750Y120000D02*
X782000D01*
X830000Y158500D02*
X830000Y158500D01*
X830000Y158500D02*
Y176500D01*
X750000D02*
X750000Y176500D01*
Y158500D02*
Y176500D01*
X782000Y120000D02*
X783650Y121650D01*
Y142750D01*
X880500Y158750D02*
X894000D01*
X954750Y147000D02*
X965000D01*
X949500Y152250D02*
X954750Y147000D01*
X939500Y152250D02*
X949500D01*
X962750Y165250D02*
X965000Y163000D01*
X939500Y165250D02*
X962750D01*
X955000Y182000D02*
X965000D01*
X954064Y181064D02*
X955000Y182000D01*
X954064Y177314D02*
Y181064D01*
X948500Y171750D02*
X954064Y177314D01*
X939500Y171750D02*
X948500D01*
X954750Y198000D02*
X965000D01*
X950000Y193250D02*
X954750Y198000D01*
X950000Y180750D02*
Y193250D01*
X947500Y178250D02*
X950000Y180750D01*
X939500Y178250D02*
X947500D01*
X926750Y184750D02*
X939500D01*
X918000Y193500D02*
X926750Y184750D01*
X918000Y193500D02*
Y215000D01*
X928250Y158750D02*
X939500D01*
X918000Y148500D02*
X928250Y158750D01*
X918000Y135000D02*
Y148500D01*
X485800Y73762D02*
X529812Y29750D01*
X485800Y73762D02*
Y88900D01*
X460400Y58888D02*
Y88900D01*
Y58888D02*
X494538Y24750D01*
X784500D01*
X355092Y151892D02*
X563626D01*
X588832Y126686D01*
X592564D01*
X590515Y130750D02*
X626750D01*
X604164Y104750D02*
X620500D01*
X313080Y144780D02*
X564134D01*
X604164Y104750D01*
X607408Y85250D02*
X620500D01*
X599694Y92964D02*
X607408Y85250D01*
X599694Y92964D02*
Y102616D01*
X565150Y137160D02*
X599694Y102616D01*
X330860Y137160D02*
X565150D01*
X595630Y85100D02*
X601980Y78750D01*
X595630Y85100D02*
Y100933D01*
X563467Y133096D02*
X595630Y100933D01*
X357124Y133096D02*
X563467D01*
X282600Y114300D02*
X313080Y144780D01*
X308000Y114300D02*
X330860Y137160D01*
X346710Y122682D02*
X357124Y133096D01*
X282600Y88900D02*
X293522Y99822D01*
X338328D01*
X346710Y108204D01*
Y122682D01*
X231140Y131826D02*
X281814Y182500D01*
X231140Y88138D02*
Y131826D01*
Y88138D02*
X249428Y69850D01*
X365150D01*
X384200Y88900D01*
X348488Y161036D02*
X560229D01*
X590515Y130750D01*
X854750Y175000D02*
X864500Y184750D01*
X860000Y171750D02*
X866500Y178250D01*
X860000Y100250D02*
Y171750D01*
X784500Y24750D02*
X860000Y100250D01*
X854750Y102500D02*
Y175000D01*
X782000Y29750D02*
X854750Y102500D01*
D19*
X785250Y565000D02*
X845000D01*
X741000Y520750D02*
X785250Y565000D01*
X791000Y483750D02*
Y495000D01*
X741000Y246500D02*
Y520750D01*
X687250Y192750D02*
X741000Y246500D01*
X268188Y192750D02*
X687250D01*
X219710Y144272D02*
X268188Y192750D01*
X118248Y144272D02*
X219710D01*
X71110Y191410D02*
X118248Y144272D01*
D20*
X840000Y535000D02*
X870000Y565000D01*
X790000Y535000D02*
X840000D01*
X781500Y526500D02*
X790000Y535000D01*
X781500Y519000D02*
Y526500D01*
Y519000D02*
X781500Y519000D01*
D21*
X610000Y65750D02*
X620500D01*
X610000Y47000D02*
Y65750D01*
X608000Y45000D02*
X610000Y47000D01*
X768500Y220000D02*
X770950Y217550D01*
Y197250D02*
Y217550D01*
X834500Y193500D02*
X846000Y182000D01*
X830000Y193500D02*
X834500D01*
X732000Y89500D02*
Y175561D01*
X749939Y193500D01*
X750000D01*
X759750Y59500D02*
X798000Y97750D01*
Y120000D01*
X796350Y121650D02*
X798000Y120000D01*
X796350Y121650D02*
Y142750D01*
X870250Y152250D02*
X880500D01*
X620500Y57680D02*
Y65750D01*
Y57680D02*
X626500Y51680D01*
Y45000D02*
Y51680D01*
X866500Y148500D02*
X870250Y152250D01*
X846000Y109500D02*
Y182000D01*
X775500Y39000D02*
X846000Y109500D01*
X866500Y79354D02*
Y148500D01*
X805942Y18796D02*
X866500Y79354D01*
D22*
X889800Y300800D02*
D03*
X835000D02*
D03*
X807600D02*
D03*
X862400D02*
D03*
X780200D02*
D03*
X793900Y329200D02*
D03*
X821300D02*
D03*
X848700D02*
D03*
X876100D02*
D03*
X889800Y640800D02*
D03*
X835000D02*
D03*
X807600D02*
D03*
X862400D02*
D03*
X780200D02*
D03*
X793900Y669200D02*
D03*
X821300D02*
D03*
X848700D02*
D03*
X876100D02*
D03*
X435000Y88900D02*
D03*
Y114300D02*
D03*
X460400D02*
D03*
Y88900D02*
D03*
X485800Y114300D02*
D03*
Y88900D02*
D03*
X511200Y114300D02*
D03*
Y88900D02*
D03*
X536600Y114300D02*
D03*
Y88900D02*
D03*
X562000Y114300D02*
D03*
Y88900D02*
D03*
X409600Y114300D02*
D03*
Y88900D02*
D03*
X384200Y114300D02*
D03*
Y88900D02*
D03*
X358800Y114300D02*
D03*
Y88900D02*
D03*
X333400Y114300D02*
D03*
Y88900D02*
D03*
X308000Y114300D02*
D03*
Y88900D02*
D03*
X282600Y114300D02*
D03*
Y88900D02*
D03*
X257200Y114300D02*
D03*
Y88900D02*
D03*
X870000Y565000D02*
D03*
X845000D02*
D03*
X172710Y166010D02*
D03*
X71110Y191410D02*
D03*
X96510D02*
D03*
X121910D02*
D03*
X147310D02*
D03*
X172710D02*
D03*
D23*
X710050Y315000D02*
D03*
X959950D02*
D03*
X710050Y655000D02*
D03*
X959950D02*
D03*
D24*
X80000Y22500D02*
D03*
X214620Y182520D02*
D03*
D25*
X965100Y49000D02*
D03*
Y741900D02*
D03*
X34200Y49000D02*
D03*
D26*
X791000Y483750D02*
D03*
X775500Y39000D02*
D03*
X732000Y89500D02*
D03*
X759750Y59500D02*
D03*
X586000Y163000D02*
D03*
X714000Y147000D02*
D03*
X933000Y228000D02*
D03*
X888000Y135000D02*
D03*
X768750Y120000D02*
D03*
X894000Y158750D02*
D03*
X620500Y57680D02*
D03*
X355092Y151892D02*
D03*
X348488Y161036D02*
D03*
X805942Y18796D02*
D03*
M02*
