M48
;Layer_Color=9474304
;FILE_FORMAT=4:4
METRIC,LZ
;TYPE=PLATED
T1F00S00C0.3810
T2F00S00C0.7620
T3F00S00C0.9906
T4F00S00C1.0000
T5F00S00C1.0414
T6F00S00C3.1000
;TYPE=NON_PLATED
T7F00S00C2.0000
T8F00S00C2.1844
%
T01
X006205Y0005768
X0075975Y000595
X007755Y00039
X00805942Y00018796
X00732Y000895
X0076875Y0012
X00714Y00147
X00888Y00135
X00894Y0015875
X00933Y00228
X00791Y0048375
X00586Y00163
X00348488Y00161036
X00355092Y00151892
T02
X007802Y003008
X008076
X00835
X008624
X008898
X008761Y003292
X008487
X008213
X007939
X008076Y006408
X00835
X008624
X008898
X008761Y006692
X008487
X008213
X007939
X007802Y006408
T03
X0007111Y0019141
X0009651
X0012191
X0014731
X0017271
Y0016601
T04
X00845Y00565
X0087
T05
X002572Y000889
X002826
X00308
X003334
X003588
X003842
X004096
X00435
X004604
X004858
X005112
X005366
X00562
Y001143
X005366
X005112
X004858
X004604
X00435
X004096
X003842
X003588
X003334
X00308
X002826
X002572
T06
X0071005Y00315
X0095995
Y00655
X0071005
T07
X000342Y00049
X009651
Y007419
T08
X0008Y000225
X0021462Y0018252
M30
