G04 Layer_Color=65535*
%FSLAX44Y44*%
%MOMM*%
G71*
G01*
G75*
%ADD28C,0.2500*%
%ADD29C,0.6000*%
%ADD30C,0.2000*%
%ADD31C,0.1270*%
D28*
X764750Y495000D02*
G03*
X764750Y495000I-1250J0D01*
G01*
X680750Y58000D02*
G03*
X680750Y58000I-1250J0D01*
G01*
X763700Y142750D02*
G03*
X763700Y142750I-1250J0D01*
G01*
X940750Y144500D02*
G03*
X940750Y144500I-1250J0D01*
G01*
D29*
X661500Y72000D02*
G03*
X661500Y72000I-3000J0D01*
G01*
X778000Y164000D02*
G03*
X778000Y164000I-3000J0D01*
G01*
X921500Y159500D02*
G03*
X921500Y159500I-3000J0D01*
G01*
D30*
X766500Y504000D02*
Y514000D01*
X774500D01*
X796500Y504000D02*
Y514000D01*
X788500D02*
X796500D01*
X631500Y128000D02*
X668500D01*
X631500Y62000D02*
X668500D01*
X631500D02*
Y128000D01*
X668500Y62000D02*
Y128000D01*
X765000Y154000D02*
X815000D01*
X765000Y186000D02*
X815000D01*
X765000Y154000D02*
Y186000D01*
X815000Y154000D02*
Y186000D01*
X891500Y200500D02*
X928500D01*
X891500Y149500D02*
X928500D01*
X891500D02*
Y200500D01*
X928500Y149500D02*
Y200500D01*
D31*
X905078Y587617D02*
X902539D01*
X903809D01*
Y581270D01*
X902539Y580000D01*
X901270D01*
X900000Y581270D01*
X907617Y586348D02*
X908887Y587617D01*
X911426D01*
X912696Y586348D01*
Y585078D01*
X911426Y583809D01*
X910157D01*
X911426D01*
X912696Y582539D01*
Y581270D01*
X911426Y580000D01*
X908887D01*
X907617Y581270D01*
X775078Y531270D02*
Y536348D01*
X773809Y537617D01*
X771270D01*
X770000Y536348D01*
Y531270D01*
X771270Y530000D01*
X773809D01*
X772539Y532539D02*
X775078Y530000D01*
X773809D02*
X775078Y531270D01*
X777617Y530000D02*
X780157D01*
X778887D01*
Y537617D01*
X777617Y536348D01*
X40000Y172617D02*
Y166270D01*
X41270Y165000D01*
X43809D01*
X45078Y166270D01*
Y172617D01*
X52696Y165000D02*
X47618D01*
X52696Y170078D01*
Y171348D01*
X51426Y172617D01*
X48887D01*
X47618Y171348D01*
X655000Y57618D02*
Y51270D01*
X656270Y50000D01*
X658809D01*
X660078Y51270D01*
Y57618D01*
X662617Y56348D02*
X663887Y57618D01*
X666426D01*
X667696Y56348D01*
Y55078D01*
X666426Y53809D01*
X665157D01*
X666426D01*
X667696Y52539D01*
Y51270D01*
X666426Y50000D01*
X663887D01*
X662617Y51270D01*
X791718Y217675D02*
Y211328D01*
X792988Y210058D01*
X795527D01*
X796796Y211328D01*
Y217675D01*
X803144Y210058D02*
Y217675D01*
X799335Y213867D01*
X804414D01*
X965078Y131348D02*
X963809Y132618D01*
X961270D01*
X960000Y131348D01*
Y126270D01*
X961270Y125000D01*
X963809D01*
X965078Y126270D01*
X967617Y125000D02*
X970157D01*
X968887D01*
Y132618D01*
X967617Y131348D01*
X910078Y121348D02*
X908809Y122618D01*
X906270D01*
X905000Y121348D01*
Y116270D01*
X906270Y115000D01*
X908809D01*
X910078Y116270D01*
X917696Y115000D02*
X912617D01*
X917696Y120078D01*
Y121348D01*
X916426Y122618D01*
X913887D01*
X912617Y121348D01*
X965078Y216348D02*
X963809Y217617D01*
X961270D01*
X960000Y216348D01*
Y211270D01*
X961270Y210000D01*
X963809D01*
X965078Y211270D01*
X967617Y216348D02*
X968887Y217617D01*
X971426D01*
X972696Y216348D01*
Y215078D01*
X971426Y213809D01*
X970157D01*
X971426D01*
X972696Y212539D01*
Y211270D01*
X971426Y210000D01*
X968887D01*
X967617Y211270D01*
X915078Y236348D02*
X913809Y237617D01*
X911270D01*
X910000Y236348D01*
Y231270D01*
X911270Y230000D01*
X913809D01*
X915078Y231270D01*
X921426Y230000D02*
Y237617D01*
X917617Y233809D01*
X922696D01*
X700078Y181348D02*
X698809Y182617D01*
X696270D01*
X695000Y181348D01*
Y176270D01*
X696270Y175000D01*
X698809D01*
X700078Y176270D01*
X707696Y182617D02*
X702617D01*
Y178809D01*
X705157Y180078D01*
X706426D01*
X707696Y178809D01*
Y176270D01*
X706426Y175000D01*
X703887D01*
X702617Y176270D01*
X600078Y31348D02*
X598809Y32617D01*
X596270D01*
X595000Y31348D01*
Y26270D01*
X596270Y25000D01*
X598809D01*
X600078Y26270D01*
X607696Y32617D02*
X605157Y31348D01*
X602617Y28809D01*
Y26270D01*
X603887Y25000D01*
X606426D01*
X607696Y26270D01*
Y27539D01*
X606426Y28809D01*
X602617D01*
X600078Y186348D02*
X598809Y187617D01*
X596270D01*
X595000Y186348D01*
Y181270D01*
X596270Y180000D01*
X598809D01*
X600078Y181270D01*
X602617Y187617D02*
X607696D01*
Y186348D01*
X602617Y181270D01*
Y180000D01*
X790078Y106348D02*
X788809Y107618D01*
X786270D01*
X785000Y106348D01*
Y101270D01*
X786270Y100000D01*
X788809D01*
X790078Y101270D01*
X792617Y106348D02*
X793887Y107618D01*
X796426D01*
X797696Y106348D01*
Y105078D01*
X796426Y103809D01*
X797696Y102539D01*
Y101270D01*
X796426Y100000D01*
X793887D01*
X792617Y101270D01*
Y102539D01*
X793887Y103809D01*
X792617Y105078D01*
Y106348D01*
X793887Y103809D02*
X796426D01*
X825000Y127618D02*
Y120000D01*
X828809D01*
X830078Y121270D01*
Y126348D01*
X828809Y127618D01*
X825000D01*
X832617Y120000D02*
X835157D01*
X833887D01*
Y127618D01*
X832617Y126348D01*
X745000Y127618D02*
Y120000D01*
X748809D01*
X750078Y121270D01*
Y126348D01*
X748809Y127618D01*
X745000D01*
X757696Y120000D02*
X752617D01*
X757696Y125078D01*
Y126348D01*
X756426Y127618D01*
X753887D01*
X752617Y126348D01*
X630000Y25000D02*
Y32617D01*
X633809D01*
X635078Y31348D01*
Y28809D01*
X633809Y27539D01*
X630000D01*
X632539D02*
X635078Y25000D01*
X637617D02*
X640157D01*
X638887D01*
Y32617D01*
X637617Y31348D01*
X825500Y206756D02*
Y214373D01*
X829309D01*
X830578Y213104D01*
Y210565D01*
X829309Y209295D01*
X825500D01*
X828039D02*
X830578Y206756D01*
X838196D02*
X833118D01*
X838196Y211834D01*
Y213104D01*
X836926Y214373D01*
X834387D01*
X833118Y213104D01*
X720000Y190000D02*
Y197617D01*
X723809D01*
X725078Y196348D01*
Y193809D01*
X723809Y192539D01*
X720000D01*
X722539D02*
X725078Y190000D01*
X727617Y196348D02*
X728887Y197617D01*
X731426D01*
X732696Y196348D01*
Y195078D01*
X731426Y193809D01*
X730157D01*
X731426D01*
X732696Y192539D01*
Y191270D01*
X731426Y190000D01*
X728887D01*
X727617Y191270D01*
X755000Y235000D02*
Y242617D01*
X758809D01*
X760078Y241348D01*
Y238809D01*
X758809Y237539D01*
X755000D01*
X757539D02*
X760078Y235000D01*
X766426D02*
Y242617D01*
X762617Y238809D01*
X767696D01*
X890000Y212617D02*
Y206270D01*
X891270Y205000D01*
X893809D01*
X895078Y206270D01*
Y212617D01*
X897617Y205000D02*
X900157D01*
X898887D01*
Y212617D01*
X897617Y211348D01*
X645000Y192617D02*
Y191348D01*
X647539Y188809D01*
X650078Y191348D01*
Y192617D01*
X647539Y188809D02*
Y185000D01*
X652617D02*
X655157D01*
X653887D01*
Y192617D01*
X652617Y191348D01*
M02*
