G04 Layer_Color=16711935*
%FSLAX44Y44*%
%MOMM*%
G71*
G01*
G75*
%ADD40C,1.6740*%
%ADD41C,4.1500*%
%ADD42C,2.3344*%
%ADD43C,2.1500*%
D40*
X889800Y300800D02*
D03*
X835000D02*
D03*
X807600D02*
D03*
X862400D02*
D03*
X780200D02*
D03*
X793900Y329200D02*
D03*
X821300D02*
D03*
X848700D02*
D03*
X876100D02*
D03*
X889800Y640800D02*
D03*
X835000D02*
D03*
X807600D02*
D03*
X862400D02*
D03*
X780200D02*
D03*
X793900Y669200D02*
D03*
X821300D02*
D03*
X848700D02*
D03*
X876100D02*
D03*
X435000Y88900D02*
D03*
Y114300D02*
D03*
X460400D02*
D03*
Y88900D02*
D03*
X485800Y114300D02*
D03*
Y88900D02*
D03*
X511200Y114300D02*
D03*
Y88900D02*
D03*
X536600Y114300D02*
D03*
Y88900D02*
D03*
X562000Y114300D02*
D03*
Y88900D02*
D03*
X409600Y114300D02*
D03*
Y88900D02*
D03*
X384200Y114300D02*
D03*
Y88900D02*
D03*
X358800Y114300D02*
D03*
Y88900D02*
D03*
X333400Y114300D02*
D03*
Y88900D02*
D03*
X308000Y114300D02*
D03*
Y88900D02*
D03*
X282600Y114300D02*
D03*
Y88900D02*
D03*
X257200Y114300D02*
D03*
Y88900D02*
D03*
X870000Y565000D02*
D03*
X845000D02*
D03*
X172710Y166010D02*
D03*
X71110Y191410D02*
D03*
X96510D02*
D03*
X121910D02*
D03*
X147310D02*
D03*
X172710D02*
D03*
D41*
X710050Y315000D02*
D03*
X959950D02*
D03*
X710050Y655000D02*
D03*
X959950D02*
D03*
D42*
X80000Y22500D02*
D03*
X214620Y182520D02*
D03*
D43*
X965100Y49000D02*
D03*
Y741900D02*
D03*
X34200Y49000D02*
D03*
M02*
