G04 Layer_Color=8388736*
%FSLAX44Y44*%
%MOMM*%
G71*
G01*
G75*
%ADD32R,0.7500X1.1500*%
%ADD33O,1.5500X0.6000*%
%ADD34O,0.7500X1.6000*%
%ADD35R,1.6000X1.4500*%
%ADD36R,1.4500X1.6000*%
%ADD37R,1.5500X1.3000*%
%ADD38R,1.3000X1.5500*%
%ADD39R,2.1500X1.5500*%
%ADD40C,1.6740*%
%ADD41C,4.1500*%
%ADD42C,2.3344*%
%ADD43C,2.1500*%
D32*
X772000Y495000D02*
D03*
X791000D02*
D03*
X781500Y519000D02*
D03*
D33*
X620500Y124250D02*
D03*
Y117750D02*
D03*
Y111250D02*
D03*
Y104750D02*
D03*
Y98250D02*
D03*
Y91750D02*
D03*
Y85250D02*
D03*
Y78750D02*
D03*
Y72250D02*
D03*
Y65750D02*
D03*
X679500Y124250D02*
D03*
Y117750D02*
D03*
Y111250D02*
D03*
Y104750D02*
D03*
Y98250D02*
D03*
Y91750D02*
D03*
Y85250D02*
D03*
Y78750D02*
D03*
Y72250D02*
D03*
Y65750D02*
D03*
X880500Y197750D02*
D03*
Y191250D02*
D03*
Y184750D02*
D03*
Y178250D02*
D03*
Y171750D02*
D03*
Y165250D02*
D03*
Y158750D02*
D03*
Y152250D02*
D03*
X939500Y197750D02*
D03*
Y191250D02*
D03*
Y184750D02*
D03*
Y178250D02*
D03*
Y171750D02*
D03*
Y165250D02*
D03*
Y158750D02*
D03*
Y152250D02*
D03*
D34*
X770950Y142750D02*
D03*
X783650D02*
D03*
X796350D02*
D03*
X809050D02*
D03*
X770950Y197250D02*
D03*
X783650D02*
D03*
X796350D02*
D03*
X809050D02*
D03*
D35*
X965000Y147000D02*
D03*
Y163000D02*
D03*
Y182000D02*
D03*
Y198000D02*
D03*
X700000Y163000D02*
D03*
Y147000D02*
D03*
X600000Y147000D02*
D03*
Y163000D02*
D03*
D36*
X918000Y135000D02*
D03*
X902000D02*
D03*
X917000Y215000D02*
D03*
X933000D02*
D03*
X608000Y45000D02*
D03*
X592000D02*
D03*
X798000Y120000D02*
D03*
X782000D02*
D03*
D37*
X830000Y141500D02*
D03*
Y158500D02*
D03*
X750000Y141500D02*
D03*
Y158500D02*
D03*
X830000Y193500D02*
D03*
Y176500D02*
D03*
X750000Y193500D02*
D03*
Y176500D02*
D03*
D38*
X626500Y45000D02*
D03*
X643500D02*
D03*
X768500Y220000D02*
D03*
X751500D02*
D03*
D39*
X672000Y167000D02*
D03*
Y143000D02*
D03*
X628000D02*
D03*
Y167000D02*
D03*
D40*
X889800Y300800D02*
D03*
X835000D02*
D03*
X807600D02*
D03*
X862400D02*
D03*
X780200D02*
D03*
X793900Y329200D02*
D03*
X821300D02*
D03*
X848700D02*
D03*
X876100D02*
D03*
X889800Y640800D02*
D03*
X835000D02*
D03*
X807600D02*
D03*
X862400D02*
D03*
X780200D02*
D03*
X793900Y669200D02*
D03*
X821300D02*
D03*
X848700D02*
D03*
X876100D02*
D03*
X435000Y88900D02*
D03*
Y114300D02*
D03*
X460400D02*
D03*
Y88900D02*
D03*
X485800Y114300D02*
D03*
Y88900D02*
D03*
X511200Y114300D02*
D03*
Y88900D02*
D03*
X536600Y114300D02*
D03*
Y88900D02*
D03*
X562000Y114300D02*
D03*
Y88900D02*
D03*
X409600Y114300D02*
D03*
Y88900D02*
D03*
X384200Y114300D02*
D03*
Y88900D02*
D03*
X358800Y114300D02*
D03*
Y88900D02*
D03*
X333400Y114300D02*
D03*
Y88900D02*
D03*
X308000Y114300D02*
D03*
Y88900D02*
D03*
X282600Y114300D02*
D03*
Y88900D02*
D03*
X257200Y114300D02*
D03*
Y88900D02*
D03*
X870000Y565000D02*
D03*
X845000D02*
D03*
X172710Y166010D02*
D03*
X71110Y191410D02*
D03*
X96510D02*
D03*
X121910D02*
D03*
X147310D02*
D03*
X172710D02*
D03*
D41*
X710050Y315000D02*
D03*
X959950D02*
D03*
X710050Y655000D02*
D03*
X959950D02*
D03*
D42*
X80000Y22500D02*
D03*
X214620Y182520D02*
D03*
D43*
X965100Y49000D02*
D03*
Y741900D02*
D03*
X34200Y49000D02*
D03*
M02*
